<?xml version="1.0" encoding="UTF-8"?>
<svg xmlns="http://www.w3.org/2000/svg" xmlns:xlink="http://www.w3.org/1999/xlink" width="327.48pt" height="384.37pt" viewBox="0 0 327.48 384.37" version="1.1">
<defs>
<clipPath id="clip2">
  <path d="M 1 0.570313 L 297 0.570313 L 297 108 L 1 108 Z M 1 0.570313 "/>
</clipPath>
<clipPath id="clip3">
  <path d="M 0.707031 0.570313 L 297.867188 0.570313 L 297.867188 108.621094 L 0.707031 108.621094 Z M 0.707031 0.570313 "/>
</clipPath>
<clipPath id="clip1">
  <rect width="298" height="109"/>
</clipPath>
<g id="surface9" clip-path="url(#clip1)">
<g clip-path="url(#clip2)" clip-rule="nonzero">
<path style=" stroke:none;fill-rule:nonzero;fill:rgb(13.299561%,11.799622%,12.199402%);fill-opacity:1;" d="M 1.65625 0.882813 C 1.65625 0.882813 36.519531 107.617188 149.660156 107.617188 C 262.800781 107.617188 296.933594 15.902344 296.933594 15.902344 "/>
</g>
<g clip-path="url(#clip3)" clip-rule="nonzero">
<path style="fill:none;stroke-width:20;stroke-linecap:butt;stroke-linejoin:miter;stroke:rgb(13.299561%,11.799622%,12.199402%);stroke-opacity:1;stroke-miterlimit:10;" d="M 136.5625 1114.871875 C 136.5625 1114.871875 485.195313 47.528125 1616.601563 47.528125 C 2748.007813 47.528125 3089.335938 964.676562 3089.335938 964.676562 " transform="matrix(0.1,0,0,-0.1,-12,112.37)"/>
</g>
</g>
<clipPath id="clip5">
  <path d="M 1 0.300781 L 6 0.300781 L 6 38 L 1 38 Z M 1 0.300781 "/>
</clipPath>
<clipPath id="clip6">
  <path d="M 0.0078125 0.300781 L 7.007813 0.300781 L 7.007813 38.421875 L 0.0078125 38.421875 Z M 0.0078125 0.300781 "/>
</clipPath>
<clipPath id="clip4">
  <rect width="8" height="39"/>
</clipPath>
<g id="surface12" clip-path="url(#clip4)">
<g clip-path="url(#clip5)" clip-rule="nonzero">
<path style=" stroke:none;fill-rule:nonzero;fill:rgb(59.999084%,81.199646%,53.69873%);fill-opacity:1;" d="M 5.023438 37.921875 L 5.964844 36.285156 L 1.027344 5.992188 L 2.183594 0.507813 "/>
</g>
<g clip-path="url(#clip6)" clip-rule="nonzero">
<path style="fill:none;stroke-width:20;stroke-linecap:butt;stroke-linejoin:miter;stroke:rgb(59.999084%,81.199646%,53.69873%);stroke-opacity:1;stroke-miterlimit:10;" d="M 1180.234375 1964.48125 L 1189.648438 1980.848437 L 1140.273438 2283.778125 L 1151.835938 2338.621875 " transform="matrix(0.1,0,0,-0.1,-113,234.37)"/>
</g>
</g>
<clipPath id="clip7">
  <path d="M 112.421875 190.832031 L 187.488281 190.832031 L 187.488281 278.1875 L 112.421875 278.1875 Z M 112.421875 190.832031 "/>
</clipPath>
<filter id="alpha" filterUnits="objectBoundingBox" x="0%" y="0%" width="100%" height="100%">
  <feColorMatrix type="matrix" in="SourceGraphic" values="0 0 0 0 1 0 0 0 0 1 0 0 0 0 1 0 0 0 1 0"/>
</filter>
<mask id="mask0">
  <g filter="url(#alpha)">
<rect x="0" y="0" width="327.48" height="384.37" style="fill:rgb(0%,0%,0%);fill-opacity:0.350006;stroke:none;"/>
  </g>
</mask>
<clipPath id="clip9">
  <path d="M 0.421875 0.832031 L 44 0.832031 L 44 31 L 0.421875 31 Z M 0.421875 0.832031 "/>
</clipPath>
<clipPath id="clip10">
  <path d="M 45 0.832031 L 75.488281 0.832031 L 75.488281 40 L 45 40 Z M 45 0.832031 "/>
</clipPath>
<clipPath id="clip11">
  <path d="M 22 0.832031 L 66 0.832031 L 66 36 L 22 36 Z M 22 0.832031 "/>
</clipPath>
<clipPath id="clip12">
  <path d="M 0.421875 49 L 30 49 L 30 88.1875 L 0.421875 88.1875 Z M 0.421875 49 "/>
</clipPath>
<clipPath id="clip13">
  <path d="M 0.421875 29 L 34 29 L 34 70 L 0.421875 70 Z M 0.421875 29 "/>
</clipPath>
<clipPath id="clip14">
  <path d="M 0.421875 7 L 39 7 L 39 50 L 0.421875 50 Z M 0.421875 7 "/>
</clipPath>
<clipPath id="clip15">
  <path d="M 38 38 L 75.488281 38 L 75.488281 82 L 38 82 Z M 38 38 "/>
</clipPath>
<clipPath id="clip16">
  <path d="M 42 17 L 75.488281 17 L 75.488281 61 L 42 61 Z M 42 17 "/>
</clipPath>
<clipPath id="clip17">
  <path d="M 32 59 L 75.488281 59 L 75.488281 88.1875 L 32 88.1875 Z M 32 59 "/>
</clipPath>
<clipPath id="clip18">
  <path d="M 10 53 L 52 53 L 52 88.1875 L 10 88.1875 Z M 10 53 "/>
</clipPath>
<clipPath id="clip8">
  <rect width="76" height="89"/>
</clipPath>
<g id="surface11" clip-path="url(#clip8)">
<g clip-path="url(#clip9)" clip-rule="nonzero">
<path style="fill:none;stroke-width:10.08;stroke-linecap:butt;stroke-linejoin:miter;stroke:rgb(97.299194%,93.699646%,41.999817%);stroke-opacity:1;stroke-miterlimit:10;" d="M 1257.109375 1824.129687 C 1263.90625 1860.809375 1270.546875 1877.020312 1280.15625 1923.504687 C 1281.5625 1930.379687 1288.398438 1930.379687 1288.398438 1930.379687 C 1352.382813 1920.614062 1355.117188 1920.184375 1404.023438 1909.16875 C 1404.21875 1909.129687 1409.648438 1909.676562 1408.789063 1904.559375 C 1402.460938 1866.434375 1392.8125 1807.60625 1386.523438 1786.278125 C 1385.46875 1782.801562 1383.359375 1780.184375 1375.117188 1782.723437 C 1313.28125 1795.41875 1274.804688 1807.957812 1261.171875 1811.629687 C 1254.0625 1813.582812 1257.03125 1823.778125 1257.109375 1824.129687 Z M 1257.109375 1824.129687 " transform="matrix(0.1,0,0,-0.1,-112,194.37)"/>
</g>
<g clip-path="url(#clip10)" clip-rule="nonzero">
<path style="fill:none;stroke-width:9.99;stroke-linecap:butt;stroke-linejoin:miter;stroke:rgb(97.299194%,93.699646%,41.999817%);stroke-opacity:1;stroke-miterlimit:10;" d="M 1720.976563 1728.973437 C 1727.5 1765.653125 1733.945313 1781.864062 1743.125 1828.348437 C 1744.492188 1835.223437 1751.210938 1835.2625 1751.210938 1835.2625 C 1814.21875 1825.8875 1816.914063 1825.496875 1865.117188 1814.754687 C 1865.273438 1814.715625 1870.625 1815.301562 1869.804688 1810.223437 C 1863.789063 1772.098437 1854.648438 1713.309375 1848.515625 1691.98125 C 1847.539063 1688.465625 1845.46875 1685.848437 1837.34375 1688.3875 C 1776.445313 1700.653125 1738.515625 1712.91875 1725.078125 1716.551562 C 1718.085938 1718.426562 1720.9375 1728.621875 1720.976563 1728.973437 Z M 1720.976563 1728.973437 " transform="matrix(0.1,0,0,-0.1,-112,194.37)"/>
</g>
<g clip-path="url(#clip11)" clip-rule="nonzero">
<path style="fill:none;stroke-width:10;stroke-linecap:butt;stroke-linejoin:miter;stroke:rgb(97.299194%,93.699646%,41.999817%);stroke-opacity:1;stroke-miterlimit:10;" d="M 1483.242188 1778.973437 C 1491.015625 1815.41875 1498.007813 1831.395312 1508.828125 1877.528125 C 1510.390625 1884.364062 1517.148438 1884.129687 1517.148438 1884.129687 C 1579.765625 1872.332812 1582.421875 1871.825 1630.234375 1859.285937 C 1630.390625 1859.207812 1635.742188 1859.598437 1634.765625 1854.48125 C 1627.421875 1816.590625 1616.25 1758.114062 1609.375 1736.98125 C 1608.28125 1733.54375 1606.132813 1730.965625 1598.085938 1733.817187 C 1537.695313 1748.465625 1500.195313 1762.215625 1486.875 1766.35625 C 1479.960938 1768.504687 1483.164063 1778.621875 1483.242188 1778.973437 Z M 1483.242188 1778.973437 " transform="matrix(0.1,0,0,-0.1,-112,194.37)"/>
</g>
<g clip-path="url(#clip12)" clip-rule="nonzero">
<path style="fill:none;stroke-width:9.91;stroke-linecap:butt;stroke-linejoin:miter;stroke:rgb(97.299194%,93.699646%,41.999817%);stroke-opacity:1;stroke-miterlimit:10;" d="M 1251.640625 1167.957812 C 1244.960938 1161.473437 1164.179688 1180.535937 1150.664063 1185.145312 C 1139.726563 1188.85625 1131.25 1190.614062 1129.335938 1204.285937 C 1127.65625 1239.715625 1140.78125 1273.309375 1147.65625 1307.410937 L 1271.953125 1282.176562 C 1277.1875 1274.207812 1266.09375 1223.895312 1263.28125 1211.434375 C 1260.039063 1196.785937 1256.054688 1182.215625 1251.640625 1167.957812 Z M 1251.640625 1167.957812 " transform="matrix(0.1,0,0,-0.1,-112,194.37)"/>
</g>
<g clip-path="url(#clip13)" clip-rule="nonzero">
<path style="fill:none;stroke-width:9.55;stroke-linecap:butt;stroke-linejoin:miter;stroke:rgb(97.299194%,93.699646%,41.999817%);stroke-opacity:1;stroke-miterlimit:10;" d="M 1190.46875 1512.645312 C 1205.507813 1507.840625 1311.015625 1494.246875 1314.726563 1489.16875 C 1317.304688 1485.575 1316.015625 1483.035937 1315.429688 1479.403125 C 1310.546875 1448.309375 1298.476563 1416.395312 1294.140625 1384.832812 C 1290.195313 1375.184375 1281.445313 1381.942187 1274.570313 1382.7625 C 1249.453125 1385.653125 1223.90625 1389.129687 1199.609375 1396.082812 C 1180.664063 1401.5125 1172.5 1404.0125 1171.875 1425.653125 Z M 1190.46875 1512.645312 " transform="matrix(0.1,0,0,-0.1,-112,194.37)"/>
</g>
<path style="fill:none;stroke-width:9.74;stroke-linecap:butt;stroke-linejoin:miter;stroke:rgb(97.299194%,93.699646%,41.999817%);stroke-opacity:1;stroke-miterlimit:10;" d="M 1471.757813 1675.848437 C 1486.484375 1669.79375 1592.460938 1653.7 1596.015625 1648.426562 C 1599.882813 1642.801562 1595.117188 1618.85625 1593.59375 1610.692187 C 1591.875 1601.278125 1576.914063 1541.98125 1573.046875 1539.285937 C 1566.015625 1534.325 1527.65625 1542.723437 1516.992188 1544.871875 C 1503.320313 1547.645312 1477.578125 1552.91875 1465.546875 1557.7625 C 1448.90625 1564.48125 1451.875 1584.754687 1453.515625 1600.614062 C 1456.054688 1625.10625 1466.640625 1651.707812 1471.757813 1675.848437 Z M 1471.757813 1675.848437 " transform="matrix(0.1,0,0,-0.1,-112,194.37)"/>
<g clip-path="url(#clip14)" clip-rule="nonzero">
<path style="fill:none;stroke-width:9.87;stroke-linecap:butt;stroke-linejoin:miter;stroke:rgb(97.299194%,93.699646%,41.999817%);stroke-opacity:1;stroke-miterlimit:10;" d="M 1364.101563 1699.989062 C 1369.84375 1693.739062 1347.1875 1599.051562 1340 1585.10625 C 1334.257813 1580.848437 1328.359375 1586.04375 1322.8125 1586.746875 C 1295.546875 1590.028125 1267.5 1595.2625 1241.015625 1603.465625 C 1225.46875 1608.270312 1221.015625 1608.426562 1217.851563 1626.864062 C 1215.78125 1639.0125 1228.4375 1699.715625 1233.28125 1713.621875 C 1234.609375 1717.332812 1235.664063 1721.121875 1238.554688 1723.973437 C 1245.234375 1728.54375 1270.46875 1723.465625 1279.804688 1722.020312 C 1308.359375 1717.528125 1336.71875 1708.973437 1364.101563 1699.989062 Z M 1364.101563 1699.989062 " transform="matrix(0.1,0,0,-0.1,-112,194.37)"/>
</g>
<g clip-path="url(#clip15)" clip-rule="nonzero">
<path style="fill:none;stroke-width:10;stroke-linecap:butt;stroke-linejoin:miter;stroke:rgb(97.299194%,93.699646%,41.999817%);stroke-opacity:1;stroke-miterlimit:10;" d="M 1642.421875 1302.371875 C 1641.640625 1341.746875 1653.4375 1380.028125 1660.546875 1418.3875 L 1784.101563 1392.020312 L 1789.140625 1387.489062 C 1782.773438 1350.848437 1779.296875 1312.645312 1767.96875 1277.645312 C 1753.515625 1266.903125 1661.796875 1292.098437 1642.421875 1302.371875 Z M 1642.421875 1302.371875 " transform="matrix(0.1,0,0,-0.1,-112,194.37)"/>
</g>
<path style="fill:none;stroke-width:10;stroke-linecap:butt;stroke-linejoin:miter;stroke:rgb(97.299194%,93.699646%,41.999817%);stroke-opacity:1;stroke-miterlimit:10;" d="M 1544.921875 1444.364062 C 1548.945313 1440.067187 1531.796875 1365.8875 1528.4375 1354.129687 C 1526.640625 1347.996875 1521.679688 1329.364062 1517.695313 1326.473437 C 1489.765625 1330.301562 1461.523438 1334.79375 1434.179688 1342.098437 C 1420.078125 1345.8875 1400.546875 1347.60625 1398.203125 1365.575 L 1416.757813 1473.504687 C 1460.117188 1470.301562 1504.414063 1461.551562 1544.921875 1444.364062 Z M 1544.921875 1444.364062 " transform="matrix(0.1,0,0,-0.1,-112,194.37)"/>
<g clip-path="url(#clip16)" clip-rule="nonzero">
<path style="fill:none;stroke-width:10.16;stroke-linecap:butt;stroke-linejoin:miter;stroke:rgb(97.299194%,93.699646%,41.999817%);stroke-opacity:1;stroke-miterlimit:10;" d="M 1816.210938 1486.473437 C 1810.742188 1481.2 1748.242188 1493.895312 1736.640625 1496.785937 C 1726.5625 1499.325 1695.859375 1506.551562 1691.484375 1515.2625 C 1680.390625 1537.371875 1705.234375 1602.957812 1709.0625 1628.309375 C 1714.6875 1634.95 1822.695313 1612.371875 1837.1875 1602.7625 C 1841.171875 1596.942187 1836.523438 1574.129687 1835.15625 1565.653125 C 1833.515625 1555.41875 1819.53125 1489.676562 1816.210938 1486.473437 Z M 1816.210938 1486.473437 " transform="matrix(0.1,0,0,-0.1,-112,194.37)"/>
</g>
<g clip-path="url(#clip17)" clip-rule="nonzero">
<path style="fill:none;stroke-width:10;stroke-linecap:butt;stroke-linejoin:miter;stroke:rgb(97.299194%,93.699646%,41.999817%);stroke-opacity:1;stroke-miterlimit:10;" d="M 1717.070313 1067.840625 C 1712.5 1063.309375 1653.59375 1075.575 1643.007813 1078.153125 C 1631.132813 1081.004687 1595.703125 1089.090625 1589.960938 1099.871875 L 1613.085938 1209.79375 C 1628.085938 1204.559375 1733.828125 1189.6375 1737.382813 1184.090625 C 1741.25 1178.075 1736.796875 1155.614062 1735.429688 1147.020312 C 1733.828125 1136.746875 1720.273438 1071.04375 1717.070313 1067.840625 Z M 1717.070313 1067.840625 " transform="matrix(0.1,0,0,-0.1,-112,194.37)"/>
</g>
<g clip-path="url(#clip18)" clip-rule="nonzero">
<path style="fill:none;stroke-width:10;stroke-linecap:butt;stroke-linejoin:miter;stroke:rgb(97.299194%,93.699646%,41.999817%);stroke-opacity:1;stroke-miterlimit:10;" d="M 1376.914063 1266.004687 L 1496.328125 1237.332812 C 1498.59375 1233.895312 1498.125 1223.934375 1497.773438 1219.246875 C 1496.875 1207.957812 1477.96875 1125.73125 1473.359375 1122.215625 C 1467.5 1117.7625 1461.640625 1123.348437 1456.171875 1123.895312 C 1432.65625 1126.35625 1380.390625 1121.551562 1368.945313 1141.785937 C 1355.898438 1164.715625 1360.742188 1226.121875 1376.914063 1266.004687 Z M 1376.914063 1266.004687 " transform="matrix(0.1,0,0,-0.1,-112,194.37)"/>
</g>
</g>
<clipPath id="clip19">
  <path d="M 3 72 L 326 72 L 326 384.371094 L 3 384.371094 Z M 3 72 "/>
</clipPath>
<clipPath id="clip20">
  <path d="M 40 234 L 208 234 L 208 384.371094 L 40 384.371094 Z M 40 234 "/>
</clipPath>
<clipPath id="clip21">
  <path d="M 8 265 L 275 265 L 275 384.371094 L 8 384.371094 Z M 8 265 "/>
</clipPath>
</defs>
<g id="surface1">
<use xlink:href="#surface9" transform="matrix(1,0,0,1,12,272)"/>
<path style=" stroke:none;fill-rule:nonzero;fill:rgb(11.399841%,12.199402%,11.799622%);fill-opacity:1;" d="M 32.273438 307.539063 C 32.414063 305.636719 30.703125 305.707031 29.265625 306.183594 L 28.601563 305.472656 C 19.570313 289.957031 12.613281 273.136719 8.851563 255.5 C 8.144531 252.191406 6.671875 242.671875 6.257813 238.4375 C 5.074219 226.808594 4.957031 216.152344 5.84375 204.914063 C 6.308594 199.941406 7 194.976563 7.914063 190.019531 C 16.824219 142.285156 44.398438 101.558594 86.8125 77.527344 C 95.09375 72.839844 103.632813 69.519531 112.535156 66.214844 C 113.785156 60.007813 114.25 56.273438 117.777344 53.039063 C 119.300781 51.648438 121.035156 50.679688 122.953125 50.148438 C 127.703125 48.71875 131.109375 49.375 135.566406 50.148438 C 150.835938 52.546875 165.679688 55.007813 183.273438 57.617188 L 205.96875 61.09375 C 206.671875 58.878906 207.378906 57.074219 209.042969 56.582031 C 212.769531 55.476563 215.527344 50.148438 216.078125 47.957031 C 216.738281 45.34375 216.5625 42.648438 216.839844 40.300781 C 215.871094 37.339844 212.976563 26.984375 213.113281 24.019531 C 214.425781 -4.175781 254.785156 -4.335938 259.511719 19.109375 C 260.21875 21.8125 260.53125 24.164063 260.425781 26.972656 L 260.339844 30.285156 C 260.050781 33.257813 258.527344 36.882813 256.957031 39.660156 C 254.546875 43.917969 249.609375 45.78125 248.058594 57.472656 C 247.832031 59.175781 248.132813 71.292969 248.058594 73.28125 C 247.875 78.148438 247.265625 78.816406 248.230469 90.871094 C 251.949219 94.542969 262.96875 104.589844 265.890625 106.808594 C 293.566406 127.785156 313.425781 151.167969 320.234375 185.367188 C 321.574219 192.117188 322.636719 197.789063 323.238281 205.742188 C 323.601563 229.46875 323.394531 243.851563 320.234375 258.398438 C 316.507813 275.53125 310.007813 292.214844 299.652344 306.300781 C 299.792969 307.210938 299.4375 307.378906 298.652344 307.507813 L 294.128906 310.699219 "/>
<path style=" stroke:none;fill-rule:nonzero;fill:rgb(25.898743%,31.399536%,63.499451%);fill-opacity:1;" d="M 93.78125 153.460938 C 89.992188 153.371094 35.851563 153.460938 35.851563 153.460938 C 41.578125 143 48.25 129.109375 56.117188 120.144531 C 66.839844 107.925781 79.894531 98.355469 93.644531 89.804688 L 106.605469 83.523438 C 106.664063 84.121094 100.015625 114.246094 96.273438 128.4375 C 94.296875 135.929688 93.476563 145.707031 93.78125 153.460938 "/>
<path style=" stroke:none;fill-rule:nonzero;fill:rgb(17.599487%,51.399231%,39.99939%);fill-opacity:1;" d="M 94.1875 192.359375 L 88.398438 214.707031 L 18.464844 214.707031 C 18.546875 214.335938 18.464844 205.8125 21.363281 192.359375 "/>
<path style=" stroke:none;fill-rule:nonzero;fill:rgb(25.898743%,31.399536%,63.499451%);fill-opacity:1;" d="M 23.429688 182.667969 C 25.042969 176.800781 26.371094 171.152344 28.902344 164.519531 C 29.644531 162.574219 32.109375 161.09375 32.109375 161.09375 L 94.601563 161.09375 L 97.582031 177.660156 C 97.300781 179.335938 96.675781 181.1875 96.078125 182.667969 C 79.480469 182.804688 23.429688 182.667969 23.429688 182.667969 "/>
<path style=" stroke:none;fill-rule:nonzero;fill:rgb(29.399109%,71.798706%,28.199768%);fill-opacity:1;" d="M 86.742188 222.15625 L 82.273438 243.683594 L 20.730469 243.683594 C 19.871094 244.058594 18.746094 234.644531 18.464844 230.640625 C 18.351563 229.046875 18.457031 224.914063 18.464844 222.15625 "/>
<path style=" stroke:none;fill-rule:nonzero;fill:rgb(2.398682%,3.49884%,3.49884%);fill-opacity:1;" d="M 112.8125 89.730469 C 109.597656 105.078125 106.636719 120.804688 104.105469 136.265625 C 103.253906 141.46875 101.953125 146.703125 101.628906 151.996094 C 101.164063 159.402344 105.460938 169.308594 106.171875 176.863281 C 106.511719 180.507813 104.085938 186.714844 103.179688 190.382813 C 97.339844 214.109375 92.160156 238.019531 87.160156 261.882813 C 86.882813 262.125 86.746094 262.398438 86.746094 262.710938 C 86.597656 263.214844 86.515625 263.882813 86.332031 264.363281 C 84.457031 269.289063 83.738281 274.15625 82.496094 279.359375 C 80.585938 287.371094 78.601563 295.367188 76.730469 303.386719 C 74.976563 306.210938 71.132813 304.789063 71.871094 301.421875 L 100.742188 177.980469 C 99.773438 168.917969 94.816406 157.75 95.871094 148.722656 C 96.199219 145.902344 97.339844 142.464844 97.882813 139.566406 C 100.980469 123.027344 104.234375 106.523438 107.519531 90.023438 C 108.75 87.753906 111.171875 88.042969 112.8125 89.730469 "/>
<path style=" stroke:none;fill-rule:nonzero;fill:rgb(29.399109%,71.798706%,28.199768%);fill-opacity:1;" d="M 79.296875 251.535156 L 76.425781 265.605469 L 25.335938 265.605469 C 25.335938 265.605469 21 252.285156 21.773438 251.535156 "/>
<path style=" stroke:none;fill-rule:nonzero;fill:rgb(28.999329%,71.798706%,28.199768%);fill-opacity:1;" d="M 74.742188 270.984375 L 74.140625 274.730469 C 74.140625 274.730469 35.910156 274.804688 29.007813 274.730469 C 28.574219 275.132813 27.734375 272.988281 27.144531 270.984375 "/>
<path style=" stroke:none;fill-rule:nonzero;fill:rgb(27.099609%,71.398926%,28.199768%);fill-opacity:1;" d="M 72.675781 280.332031 L 72.230469 282.996094 L 32.316406 282.996094 C 31.773438 282.996094 31.292969 280.332031 31.292969 280.332031 "/>
<path style=" stroke:none;fill-rule:nonzero;fill:rgb(17.599487%,51.399231%,39.99939%);fill-opacity:1;" d="M 304.390625 192.359375 C 305.386719 197.648438 307.5625 202.875 307.289063 214.707031 L 251.855469 214.707031 L 255.992188 192.359375 C 270.410156 192.363281 287.382813 192.730469 304.390625 192.359375 "/>
<path style=" stroke:none;fill-rule:nonzero;fill:rgb(29.399109%,71.798706%,28.199768%);fill-opacity:1;" d="M 247.304688 243.683594 L 251.058594 222.15625 L 306.859375 222.15625 C 307.3125 237.097656 304.636719 243.683594 304.636719 243.683594 "/>
<path style=" stroke:none;fill-rule:nonzero;fill:rgb(25.898743%,31.399536%,63.499451%);fill-opacity:1;" d="M 294.5625 161.09375 C 296.394531 165.894531 298.929688 171.300781 300.488281 176.210938 C 300.910156 177.546875 302.753906 182.667969 302.753906 182.667969 L 260.132813 182.667969 C 260.632813 182.484375 265.078125 177.207031 265.324219 176.242188 C 266.140625 173.050781 267.261719 161.230469 267.582031 161.09375 "/>
<path style=" stroke:none;fill-rule:nonzero;fill:rgb(29.399109%,71.798706%,28.199768%);fill-opacity:1;" d="M 303.582031 251.535156 C 302.050781 258.75 299.652344 265.605469 299.652344 265.605469 L 244.40625 265.605469 C 244.40625 265.605469 246.976563 251.535156 247.097656 251.535156 "/>
<path style=" stroke:none;fill-rule:nonzero;fill:rgb(25.898743%,31.399536%,63.499451%);fill-opacity:1;" d="M 291.167969 153.460938 C 287.070313 153.527344 272.585938 153.535156 268.820313 153.460938 L 271.71875 123.253906 L 277.101563 129.660156 C 282.683594 137.027344 287.261719 145.105469 291.167969 153.460938 "/>
<path style=" stroke:none;fill-rule:nonzero;fill:rgb(28.999329%,71.798706%,28.199768%);fill-opacity:1;" d="M 297.789063 270.984375 C 297.789063 270.984375 297.140625 272.679688 295.574219 274.730469 C 295.214844 275.199219 248.75 274.824219 242.339844 274.730469 L 243.164063 270.984375 "/>
<path style=" stroke:none;fill-rule:nonzero;fill:rgb(28.999329%,71.798706%,28.199768%);fill-opacity:1;" d="M 293.652344 280.332031 L 292.203125 282.996094 L 241.511719 282.996094 L 241.511719 280.332031 Z M 293.652344 280.332031 "/>
<path style=" stroke:none;fill-rule:nonzero;fill:rgb(2.398682%,3.49884%,3.49884%);fill-opacity:1;" d="M 240.539063 289.644531 C 242.695313 289.023438 243.757813 292.65625 241.660156 293.273438 C 238.773438 294.121094 238.28125 290.292969 240.539063 289.644531 "/>
<path style=" stroke:none;fill-rule:nonzero;fill:rgb(99.598694%,99.598694%,99.598694%);fill-opacity:1;" d="M 119.941406 61.890625 C 121.691406 57.640625 124.015625 56.746094 128.347656 57.4375 C 151.257813 61.097656 211.234375 71.25 211.234375 71.25 L 214.105469 59.222656 C 215.285156 57.054688 218.785156 54.875 219.492188 52.609375 C 220.21875 50.277344 221.011719 44.84375 221.214844 42.328125 C 221.632813 37.140625 219.800781 32.585938 218.773438 27.015625 C 217.789063 21.667969 220.425781 15.820313 223.535156 12.785156 C 229.757813 6.707031 237.886719 5.941406 244.957031 9.109375 C 251.855469 12.199219 254.800781 18.40625 255.09375 26.324219 C 255.300781 31.914063 254.269531 35.230469 251.636719 39.230469 C 250.40625 41.097656 248.105469 42.757813 246.949219 44.480469 C 244.277344 48.453125 243.199219 55.105469 243.503906 59.855469 C 243.929688 66.484375 243.851563 73.679688 243.324219 79.992188 C 243.003906 83.816406 242.515625 89.046875 242.945313 92.8125 C 243.339844 96.269531 244.710938 98.257813 247.09375 100.496094 C 252.226563 105.3125 265.46875 117.644531 265.339844 118.824219 C 264.476563 126.523438 259.257813 163.238281 257.066406 174.566406 C 257.066406 174.566406 256.191406 176.875 255.503906 177.875 C 254.5 179.335938 249.5625 185.214844 247.375 188.914063 C 245.789063 191.59375 236.164063 267.5625 230.769531 303.078125 C 230.617188 304.082031 228.933594 312.8125 228.398438 313.832031 C 226.328125 317.238281 225.722656 317.949219 219.703125 323.019531 C 214.984375 326.996094 220.550781 314.058594 220.550781 314.058594 C 223.878906 291.144531 238.058594 193.941406 238.539063 190.34375 C 244.164063 182.917969 248.160156 180.144531 248.421875 176.625 C 248.734375 172.382813 256.3125 118.496094 256.386719 118.074219 C 256.855469 115.359375 236.011719 99.238281 236.085938 98.195313 C 236.839844 87.996094 242.90625 75.578125 239.667969 65.296875 C 239.316406 64.1875 238.398438 63.167969 238.21875 61.785156 C 237.78125 58.488281 240 50.210938 240.378906 46.597656 C 240.8125 42.425781 240.917969 39.660156 242.433594 38.570313 C 246.160156 34.65625 249.335938 30.980469 247.824219 23.933594 C 246.75 18.910156 241.3125 14.90625 235.949219 14.839844 C 231.144531 14.777344 226.058594 17.871094 224.640625 22.996094 C 223.460938 27.257813 224.621094 29.785156 226 34.273438 C 227.988281 40.757813 224.742188 48.121094 222.269531 54.144531 C 220.816406 57.695313 217.832031 61.78125 218.234375 65.449219 L 215.4375 83.9375 C 212.65625 82.625 213.234375 79.296875 210.078125 78.671875 C 200.511719 76.78125 170.214844 71.65625 165.683594 70.929688 C 148.941406 68.238281 137.515625 66.316406 132.992188 65.511719 C 130.863281 65.132813 129.8125 65.449219 129.160156 67.097656 C 127.921875 71.136719 118.445313 110.78125 114.359375 128.316406 C 112.164063 137.734375 107.886719 147.144531 109.988281 156.90625 C 112.070313 166.558594 114.753906 174.464844 113.195313 184.671875 C 110.46875 202.507813 104.25 221.316406 100.09375 239.023438 C 94.949219 260.949219 88.199219 305.738281 82.191406 327.453125 C 80.359375 328.292969 76.382813 328.238281 74.742188 327.039063 C 75.207031 324.3125 76.894531 306.921875 79.601563 296.742188 C 82.246094 286.796875 99.210938 202.636719 105.226563 179.414063 C 104.316406 172.632813 102.679688 160.484375 101.019531 154.007813 C 100.28125 151.433594 100.796875 149.328125 101.78125 144.367188 C 104.921875 128.515625 118.722656 64.855469 119.941406 61.890625 "/>
<path style=" stroke:none;fill-rule:nonzero;fill:rgb(27.099609%,71.398926%,28.199768%);fill-opacity:1;" d="M 94.414063 303.222656 C 94.902344 303.234375 167.960938 320.4375 168.246094 320.144531 C 169.003906 319.367188 170.027344 315.386719 170.316406 314.144531 C 173.226563 301.816406 176.035156 288.558594 178.457031 275.679688 C 182.976563 250.210938 187.855469 224.8125 193.085938 199.488281 C 192.46875 188.808594 191.398438 178.226563 189.867188 167.738281 C 166.71875 163.578125 143.4375 159.753906 120.019531 156.261719 L 124.316406 186.792969 C 113.863281 223.894531 104.652344 261.320313 96.683594 299.0625 C 96.566406 300.765625 96.632813 302.445313 96.886719 304.109375 L 96.261719 304.917969 C 95.652344 306.089844 86.386719 336.003906 85.777344 334.835938 L 82.894531 329.179688 C 82.890625 329.140625 83.542969 327.261719 83.535156 327.222656 C 83.386719 325.914063 89.726563 304 89.84375 303.460938 C 92.089844 292.953125 95.800781 281.832031 98.4375 271.015625 C 105.761719 242.882813 112.503906 214.621094 118.964844 186.285156 L 117.601563 177.910156 C 115.847656 170.414063 114.863281 161.402344 114.078125 153.648438 C 113.996094 152.863281 114.089844 150.132813 114.089844 150.132813 C 115.183594 151.433594 189.386719 163.09375 190.558594 163.21875 C 191.726563 163.339844 191.851563 162.566406 191.851563 162.566406 C 191.882813 162.375 191.8125 161.796875 191.8125 161.796875 C 180.769531 159.523438 169.671875 157.492188 158.515625 155.710938 L 158.335938 155.117188 L 159.355469 154.332031 C 179.40625 153.710938 197.472656 137.617188 196.796875 116.808594 C 196.089844 94.960938 174.542969 80.914063 153.8125 85.9375 C 125.765625 92.734375 124.039063 142.375 150.46875 152.722656 L 151.296875 153.875 C 151.277344 154.253906 151.132813 154.476563 150.8125 154.425781 C 140.492188 152.707031 129.675781 150.855469 119.363281 148.980469 C 118.195313 148.746094 117.980469 147.761719 118.210938 146.652344 C 123.6875 124.898438 128.601563 103.09375 132.945313 81.234375 C 133.519531 79.941406 134.429688 74.964844 139.925781 76.097656 L 203.265625 87.097656 C 204.605469 87.335938 207.3125 89.382813 207.058594 90.820313 C 202.902344 114.105469 198.449219 137.589844 194.160156 159.8125 C 193.820313 161.453125 194.15625 162.496094 194.660156 163.945313 L 193.535156 169.523438 C 195.230469 178.808594 196.195313 188.183594 196.433594 197.652344 C 186.304688 247.152344 176.3125 296.984375 166.46875 347.148438 C 171.488281 361.929688 85.792969 337.507813 85.777344 334.835938 C 85.769531 333.65625 94.414063 303.222656 94.414063 303.222656 "/>
<path style=" stroke:none;fill-rule:nonzero;fill:rgb(59.999084%,81.199646%,53.69873%);fill-opacity:1;" d="M 205.214844 84.191406 C 209.128906 85.144531 209.972656 87.277344 209.234375 91.386719 C 209.210938 92.265625 205.070313 116.019531 196.917969 161.738281 C 196.1875 164.21875 196.730469 163.363281 196.382813 165.230469 C 196.054688 166.988281 197.53125 169.636719 197.644531 171.242188 C 198.101563 177.773438 196.90625 184.753906 197.664063 191.308594 C 197.875 193.128906 198.980469 198.238281 198.890625 199.570313 C 198.707031 202.226563 197.339844 205.964844 196.839844 208.726563 C 191.421875 238.605469 185.125 268.40625 179.121094 298.1875 C 175.6875 315.234375 171.746094 355.410156 166.609375 354.324219 C 159.179688 352.753906 156.511719 352.320313 152.539063 352.09375 C 152.171875 351.332031 152.945313 350.527344 152.953125 350.4375 C 154.890625 350.695313 163.6875 354.105469 165.722656 346.859375 C 173.34375 304.914063 182.492188 263.214844 190.925781 221.4375 C 192.304688 214.621094 193.40625 207.742188 194.859375 200.953125 C 195.648438 197.261719 196.011719 197.089844 195.558594 193 C 194.855469 186.671875 192.148438 168.066406 192.140625 166.90625 C 192.132813 165.761719 196.09375 146.449219 197.136719 140.742188 C 200.171875 124.101563 203.15625 105.871094 206.25 89.246094 C 206.238281 87.664063 187.027344 84.445313 181.515625 83.523438 C 171.089844 81.667969 165.679688 80.882813 139.929688 76.90625 C 133.601563 75.421875 134.324219 79.011719 133.371094 83.523438 C 129.160156 103.492188 120.078125 145.566406 119.460938 148.195313 L 151.300781 153.875 L 158.335938 155.113281 C 158.335938 155.113281 181.410156 158.855469 191.65625 160.472656 C 191.65625 160.472656 192.554688 160.304688 191.851563 162.566406 C 191.851563 162.566406 189.984375 161.644531 188.648438 161.425781 C 164.648438 157.511719 141.695313 154.238281 118.382813 149.757813 C 116.125 149.320313 115.992188 148.738281 115.179688 148.554688 C 115.179688 148.554688 125.902344 104.375 130.285156 82.941406 C 132.210938 75.136719 130.863281 71.238281 140.953125 72.765625 C 142.097656 72.765625 188.234375 80.699219 205.214844 84.191406 "/>
<path style=" stroke:none;fill-rule:nonzero;fill:rgb(59.999084%,81.199646%,53.69873%);fill-opacity:1;" d="M 214.613281 93.871094 C 214.640625 93.324219 214.59375 89.765625 214.613281 89.214844 C 214.613281 89.214844 246.253906 114.191406 248.058594 116.238281 C 250.246094 118.71875 251.023438 118.71875 250.269531 122.863281 C 249.109375 129.238281 244.808594 167.652344 242.796875 175.808594 C 242.339844 177.660156 235.027344 184.527344 234.261719 187.386719 C 232.75 193.015625 231.691406 203.726563 230.730469 210.757813 C 229.066406 222.957031 226.566406 235.039063 224.523438 247.167969 C 222.453125 259.441406 220.71875 271.769531 218.773438 284.042969 C 217.691406 290.835938 216.847656 297.535156 215.210938 306.167969 C 215.136719 306.546875 214 324.363281 214 324.363281 C 212.253906 327.539063 210.683594 329.214844 209.476563 329.179688 C 209.535156 328.023438 211.199219 303.402344 211.320313 302.25 C 212.621094 290.101563 214.855469 277.5 216.660156 265.378906 C 220.246094 241.285156 227.847656 185.722656 228.480469 184.503906 C 229.164063 183.175781 238.019531 175.394531 238.109375 172.613281 C 238.171875 170.691406 245.566406 119.074219 244.621094 118.277344 C 234.636719 110.144531 224.164063 102.527344 214.613281 93.871094 "/>
<path style=" stroke:none;fill-rule:nonzero;fill:rgb(59.999084%,81.199646%,53.69873%);fill-opacity:1;" d="M 86.207031 327.480469 C 85.742188 327.480469 84.785156 327.675781 84.554688 327.277344 C 84.992188 326.695313 90.199219 303.25 90.355469 302.53125 C 98.855469 263.898438 108.714844 225.546875 117.0625 186.882813 C 117.347656 185.554688 117.957031 184.085938 118.195313 182.839844 L 118.664063 180.375 L 119.828125 186.382813 C 111.738281 223.792969 101.476563 260.898438 92.648438 298.199219 C 92.125 300.402344 86.5 325.238281 86.207031 327.480469 "/>
<path style=" stroke:none;fill-rule:nonzero;fill:rgb(16.099548%,45.498657%,45.899963%);fill-opacity:1;" d="M 224.703125 62.351563 C 225.332031 62.066406 226.488281 61.835938 227.394531 61.820313 C 232.046875 61.753906 234.480469 63.671875 234.902344 67.992188 C 235.589844 74.988281 233.25 82.316406 232.027344 89.144531 C 231.648438 91.246094 231.480469 93.414063 231.164063 95.527344 C 229.96875 95.113281 230.257813 93.152344 230.359375 92.027344 C 230.894531 85.960938 232.875 79.652344 233.25 73.402344 C 233.308594 72.382813 233.316406 69.820313 233.03125 69.035156 C 231.671875 65.269531 228.269531 65.730469 228.269531 65.730469 C 228.269531 65.730469 224.550781 89.433594 224.117188 89.722656 C 223.441406 90.164063 222.113281 89.058594 221.234375 88.492188 "/>
<path style=" stroke:none;fill-rule:nonzero;fill:rgb(28.999329%,71.798706%,28.199768%);fill-opacity:1;" d="M 140.953125 72.765625 C 134.328125 71.964844 133.601563 72.40625 132.730469 77.578125 C 132.121094 81.191406 130.136719 88.410156 129.257813 92.3125 C 125.816406 107.609375 122.550781 123 118.914063 138.246094 C 118.027344 141.953125 117.457031 145.574219 116.816406 149.328125 C 116.449219 149.242188 114.003906 148.550781 114.09375 147.570313 C 115.183594 135.828125 126.414063 96.363281 131.105469 76.367188 C 132.992188 70.722656 138.566406 72.769531 140.953125 72.765625 "/>
<path style=" stroke:none;fill-rule:nonzero;fill:rgb(96.099854%,96.899414%,97.299194%);fill-opacity:1;" d="M 238.613281 18.554688 C 238.867188 18.652344 241.953125 20.496094 241.191406 22.632813 C 238.613281 18.554688 234.246094 18.632813 231.433594 20.683594 C 226.183594 24.515625 228.222656 31.148438 231.992188 35.109375 C 232.996094 36.105469 232.890625 37.863281 232.703125 39.191406 C 232.570313 40.128906 228.09375 56.945313 227.027344 58.28125 C 226.476563 58.273438 229.773438 39.195313 229.78125 38.214844 C 229.796875 35.605469 228.722656 34.363281 227.109375 29.851563 C 224.726563 23.167969 231.328125 15.734375 238.613281 18.554688 "/>
<path style=" stroke:none;fill-rule:nonzero;fill:rgb(96.099854%,96.899414%,97.299194%);fill-opacity:1;" d="M 224.703125 62.351563 L 221.234375 88.492188 C 220.84375 88.238281 219.039063 87 218.9375 86.855469 C 218.222656 85.816406 219.011719 82.863281 219.144531 81.640625 C 219.402344 79.191406 219.621094 76.664063 220.015625 74.234375 C 220.367188 72.050781 220.773438 68.492188 221.421875 66.539063 C 222.101563 64.496094 222.960938 63.148438 224.703125 62.351563 "/>
<path style=" stroke:none;fill-rule:nonzero;fill:rgb(16.099548%,45.498657%,45.899963%);fill-opacity:1;" d="M 231.992188 35.109375 C 232.292969 35.425781 233.964844 36.570313 233.964844 36.570313 L 229.917969 58.277344 C 228.773438 57.75 227.027344 58.28125 227.027344 58.28125 C 228.566406 51.285156 229.949219 47.332031 231.894531 40.597656 C 232.464844 38.628906 232.578125 37.121094 231.992188 35.109375 "/>
<path style=" stroke:none;fill-rule:nonzero;fill:rgb(16.099548%,45.498657%,45.899963%);fill-opacity:1;" d="M 234.886719 60.351563 C 234.285156 59.34375 232.046875 58.644531 232.046875 58.644531 C 232.046875 58.644531 234.292969 45.609375 235.839844 41.230469 C 236.101563 40.480469 236.542969 39.660156 236.542969 39.660156 "/>
<path style=" stroke:none;fill-rule:nonzero;fill:rgb(27.099609%,71.398926%,28.199768%);fill-opacity:1;" d="M 209.476563 329.179688 C 206.042969 333.574219 201.855469 336.210938 195.28125 341.441406 C 194.976563 341.683594 200.105469 305.917969 200.125 305.535156 C 203.144531 288.464844 205.882813 271.339844 208.851563 254.257813 C 215.0625 218.527344 232.332031 114.601563 231.960938 113.351563 L 230.339844 112.90625 C 229.144531 118.71875 216.363281 189.472656 210.867188 221.925781 C 206.144531 249.800781 198.09375 314.667969 193.003906 342.472656 C 193.003906 342.472656 186.542969 347.785156 185.554688 348.15625 L 179.628906 353.238281 L 175.71875 356.445313 C 174.53125 357.417969 169.363281 362.898438 167.59375 364 C 161.925781 367.53125 101.269531 347.15625 95.152344 347.230469 C 92.296875 345.785156 88.382813 339.351563 88.691406 338.957031 L 96.597656 340.203125 C 100.375 340.714844 159.207031 354.609375 162.328125 355.054688 C 167.449219 356.195313 169.941406 354.152344 171.988281 350.027344 C 169.675781 350.199219 169.675781 350.199219 169.675781 350.199219 C 169.273438 350.15625 188.511719 246.84375 198.410156 196.644531 C 196.695313 185.382813 196.105469 178 194.914063 167.367188 L 196.019531 164.023438 L 196.808594 161.1875 C 198.410156 174.566406 201.488281 191.832031 200.453125 198.15625 C 198.691406 208.941406 191.554688 249.070313 184.402344 283.210938 C 184.402344 283.210938 185.605469 286.550781 186.382813 283.105469 C 190.335938 265.605469 204.226563 205.339844 204.28125 194.695313 C 204.308594 189.867188 203.5 183.667969 200.765625 162.925781 C 205.175781 141 214.519531 94.789063 214.613281 92.871094 C 214.613281 92.871094 227.234375 104.300781 244.25 116.796875 L 246.566406 119.074219 C 243.828125 135.652344 240.960938 155.113281 238.109375 172.613281 C 237.398438 176.21875 234.136719 178.703125 232.851563 180.039063 C 230.289063 182.445313 228.128906 186.191406 227.992188 190.023438 C 222.640625 227.390625 216.203125 281.023438 210.988281 318.527344 C 211.25 320.191406 210.300781 328.566406 209.476563 329.179688 "/>
<path style=" stroke:none;fill-rule:nonzero;fill:rgb(10.598755%,10.998535%,10.998535%);fill-opacity:1;" d="M 184.804688 290.035156 C 184.929688 290.15625 184.457031 293.007813 184.371094 293.503906 C 183.921875 296.09375 182.859375 301.1875 182.25 304.214844 C 181.628906 307.304688 180.066406 306.921875 180.65625 303.484375 C 181.246094 300.007813 182.394531 293.855469 183.164063 289.605469 C 183.550781 287.464844 184.804688 290.035156 184.804688 290.035156 "/>
<path style=" stroke:none;fill-rule:nonzero;fill:rgb(11.399841%,11.399841%,11.399841%);fill-opacity:1;" d="M 181.070313 309.082031 C 181.023438 310.160156 173.542969 346.3125 173.542969 346.3125 C 172.894531 348.671875 171.378906 349.132813 171.875 345.507813 C 172.070313 344.09375 179.09375 310.800781 179.4375 308.644531 C 179.4375 308.644531 181.269531 304.496094 181.070313 309.082031 "/>
<path style=" stroke:none;fill-rule:nonzero;fill:rgb(11.399841%,12.199402%,11.799622%);fill-opacity:1;" d="M 117.367188 305.746094 C 115.664063 305.707031 113.828125 305.398438 112.398438 305.332031 L 104.410156 302.417969 C 104.050781 302.285156 103.800781 301.964844 103.753906 301.589844 C 103.496094 299.496094 103.320313 297.898438 103.90625 295.804688 C 104.074219 295.207031 104.507813 293.496094 104.917969 293.523438 L 105.964844 294.183594 L 104.980469 301.164063 C 104.980469 301.164063 115.597656 304.851563 116.605469 304.492188 "/>
<path style=" stroke:none;fill-rule:nonzero;fill:rgb(11.399841%,12.199402%,11.799622%);fill-opacity:1;" d="M 158.335938 155.117188 C 156.410156 154.988281 153.132813 154.441406 151.300781 153.875 C 122.484375 144.960938 123.585938 87.5 158.148438 84.371094 C 191.722656 81.335938 209.996094 116.960938 188.132813 142.085938 C 181.65625 149.523438 168.269531 155.765625 158.335938 155.117188 "/>
<path style=" stroke:none;fill-rule:nonzero;fill:rgb(27.099609%,71.398926%,28.199768%);fill-opacity:1;" d="M 166.914063 93.554688 C 177.449219 92.675781 189.15625 96.636719 193.300781 107.109375 C 199.683594 123.234375 186.117188 145.617188 170.242188 150.679688 C 149.300781 157.359375 131.640625 142.484375 133.074219 120.957031 C 134.128906 105.148438 152.589844 94.75 166.914063 93.554688 "/>
<path style=" stroke:none;fill-rule:nonzero;fill:rgb(59.999084%,81.199646%,53.69873%);fill-opacity:1;" d="M 136.394531 120.355469 C 139.574219 132.105469 150.476563 142.773438 162.699219 144.75 C 166.246094 145.324219 169.191406 145.152344 172.695313 144.441406 C 173.328125 144.3125 173.796875 144.085938 173.644531 144.976563 C 173.113281 145.976563 167.3125 147.824219 165.96875 148.0625 C 148.546875 151.140625 137.398438 139.472656 135.589844 123.027344 C 135.429688 121.566406 135.109375 119.050781 136.394531 120.355469 "/>
<path style=" stroke:none;fill-rule:nonzero;fill:rgb(11.399841%,12.199402%,11.799622%);fill-opacity:1;" d="M 172.273438 116.277344 C 173.34375 116.035156 175.050781 116.941406 175.511719 117.867188 C 177.097656 121.027344 173.246094 125.09375 170.109375 122.855469 C 167.339844 120.871094 169.550781 116.890625 172.273438 116.277344 "/>
<path style=" stroke:none;fill-rule:nonzero;fill:rgb(11.399841%,12.199402%,11.799622%);fill-opacity:1;" d="M 173.152344 125.8125 C 173.328125 125.988281 173.597656 126.882813 173.632813 127.191406 C 174.050781 130.898438 170.234375 133.980469 167.421875 130.921875 C 165.105469 128.394531 168.222656 124.898438 170.960938 124.914063 C 171.214844 124.914063 173.011719 125.671875 173.152344 125.8125 "/>
<path style=" stroke:none;fill-rule:nonzero;fill:rgb(11.399841%,12.199402%,11.799622%);fill-opacity:1;" d="M 152.820313 122.085938 C 158.089844 120.898438 157.8125 128.535156 153.980469 129.039063 C 149.101563 129.6875 148.878906 122.972656 152.820313 122.085938 "/>
<path style=" stroke:none;fill-rule:nonzero;fill:rgb(11.399841%,12.199402%,11.799622%);fill-opacity:1;" d="M 160.324219 105.949219 C 160.601563 106.230469 161.261719 108.066406 161.261719 108.5625 C 161.261719 111.992188 156.683594 113.574219 154.832031 110.820313 C 152.214844 106.925781 158.332031 103.929688 160.324219 105.949219 "/>
<path style=" stroke:none;fill-rule:nonzero;fill:rgb(11.399841%,12.199402%,11.799622%);fill-opacity:1;" d="M 173.496094 108.414063 C 174.933594 107.988281 176.714844 108.386719 177.460938 109.710938 C 179.378906 113.113281 176.347656 115.996094 172.671875 114.914063 C 169.949219 114.113281 171.246094 109.085938 173.496094 108.414063 "/>
<path style=" stroke:none;fill-rule:nonzero;fill:rgb(11.399841%,11.399841%,11.399841%);fill-opacity:1;" d="M 158.257813 114.226563 C 158.398438 114.371094 159.15625 116.167969 159.175781 116.441406 C 159.511719 121.082031 151.871094 121.992188 152.097656 116.835938 C 152.230469 113.785156 156.738281 112.6875 158.257813 114.226563 "/>
<path style=" stroke:none;fill-rule:nonzero;fill:rgb(11.399841%,12.199402%,11.799622%);fill-opacity:1;" d="M 160.257813 124.140625 C 160.847656 123.96875 162.855469 123.96875 163.445313 124.140625 C 166.167969 124.941406 165.664063 131.816406 160.273438 130.621094 C 157.402344 129.988281 157.792969 124.863281 160.257813 124.140625 "/>
<path style=" stroke:none;fill-rule:nonzero;fill:rgb(11.399841%,12.199402%,11.799622%);fill-opacity:1;" d="M 166.535156 115.878906 C 167.863281 117.207031 167.066406 121.398438 164.675781 121.933594 C 159.382813 123.121094 159.234375 116.613281 162.449219 115.574219 C 163.375 115.273438 165.867188 115.214844 166.535156 115.878906 "/>
<path style=" stroke:none;fill-rule:nonzero;fill:rgb(11.399841%,11.399841%,11.399841%);fill-opacity:1;" d="M 165.234375 107.1875 C 168.488281 106.460938 170.476563 109.394531 168.871094 112.066406 C 167.832031 113.800781 166 114.164063 164.105469 113.546875 C 161.226563 112.609375 162.390625 107.828125 165.234375 107.1875 "/>
<path style=" stroke:none;fill-rule:nonzero;fill:rgb(11.399841%,12.199402%,11.799622%);fill-opacity:1;" d="M 96.261719 304.917969 C 96.261719 304.917969 96.347656 300.808594 96.40625 297.292969 C 105.300781 259.800781 112.636719 221.835938 124.050781 185.03125 L 119.558594 153.46875 L 191.097656 165.105469 L 192.78125 176.871094 L 194.4375 197.933594 C 186.566406 233.722656 181.394531 270.128906 173.242188 305.851563 C 172.714844 308.175781 170.671875 318.15625 169.21875 319.207031 C 168.855469 319.46875 167.421875 319.859375 166.9375 319.855469 L 162.183594 318.160156 C 161.949219 316.492188 162.949219 314.691406 162.949219 314.691406 C 164.789063 314.625 166.816406 304.324219 166.332031 304.007813 C 164.039063 302.523438 152.523438 300.699219 149.179688 300.160156 L 145.992188 312.375 L 148.523438 305.339844 C 148.101563 312.582031 146.558594 312.542969 145.992188 312.375 C 145.558594 312.246094 137.484375 313.019531 137.347656 313 L 141.027344 310.722656 C 141.542969 310.3125 144.066406 298.613281 143.847656 298.574219 C 140.613281 297.988281 134.0625 296.296875 127.390625 295.488281 C 127.03125 298.382813 138.070313 303.746094 137.347656 306.316406 C 137.308594 306.328125 132.089844 311.796875 131.628906 311.847656 C 129.9375 312.035156 120.425781 309.203125 118.660156 309.210938 C 118.3125 309.21875 118.9375 303.976563 118.78125 303.683594 L 120.898438 294.359375 C 119.542969 293.519531 105.90625 290.269531 105.046875 290.636719 C 104.507813 290.863281 102.265625 299.695313 103.222656 301.320313 C 104.4375 301.882813 105.054688 302.53125 105.074219 303.273438 "/>
<path style=" stroke:none;fill-rule:nonzero;fill:rgb(65.098572%,80.39856%,21.998596%);fill-opacity:1;" d="M 122.3125 203.484375 C 123.21875 198.789063 124.101563 196.710938 125.375 190.761719 C 125.566406 189.882813 126.46875 189.882813 126.46875 189.882813 C 134.972656 191.132813 135.335938 191.1875 141.835938 192.597656 C 141.859375 192.601563 142.578125 192.53125 142.46875 193.1875 C 141.628906 198.066406 140.347656 205.601563 139.507813 208.332031 C 139.367188 208.78125 139.085938 209.117188 137.992188 208.785156 C 129.78125 207.160156 124.667969 205.558594 122.855469 205.085938 C 121.910156 204.839844 122.304688 203.53125 122.3125 203.484375 "/>
<path style=" stroke:none;fill-rule:nonzero;fill:rgb(65.098572%,80.39856%,21.998596%);fill-opacity:1;" d="M 168.628906 213.0625 C 169.507813 208.359375 170.378906 206.28125 171.617188 200.320313 C 171.800781 199.441406 172.707031 199.433594 172.707031 199.433594 C 181.214844 200.636719 181.578125 200.6875 188.089844 202.058594 C 188.109375 202.066406 188.832031 201.992188 188.722656 202.648438 C 187.910156 207.53125 186.675781 215.074219 185.847656 217.8125 C 185.714844 218.257813 185.433594 218.597656 184.339844 218.273438 C 176.117188 216.695313 170.996094 215.121094 169.179688 214.660156 C 168.234375 214.417969 168.617188 213.105469 168.628906 213.0625 "/>
<path style=" stroke:none;fill-rule:nonzero;fill:rgb(65.098572%,80.39856%,21.998596%);fill-opacity:1;" d="M 145.335938 207.9375 C 146.386719 203.269531 147.335938 201.222656 148.792969 195.3125 C 149.007813 194.4375 149.914063 194.464844 149.914063 194.464844 C 158.371094 195.976563 158.730469 196.042969 165.1875 197.652344 C 165.210938 197.65625 165.933594 197.609375 165.800781 198.261719 C 164.808594 203.113281 163.296875 210.605469 162.375 213.308594 C 162.222656 213.753906 161.933594 214.078125 160.847656 213.714844 C 152.6875 211.839844 147.628906 210.078125 145.832031 209.550781 C 144.894531 209.273438 145.328125 207.980469 145.335938 207.9375 "/>
<path style=" stroke:none;fill-rule:nonzero;fill:rgb(3.898621%,5.099487%,5.099487%);fill-opacity:1;" d="M 134.335938 193.1875 C 133.597656 198.796875 133.191406 199.8125 132.671875 203.117188 C 131.753906 203.210938 130.359375 203.214844 130.582031 202.082031 C 130.890625 200.511719 132.71875 195.179688 132.71875 195.179688 C 130.269531 196.242188 128.621094 193.472656 131.304688 193.265625 C 132.3125 193.1875 132.992188 193.1875 134.335938 193.1875 "/>
<path style=" stroke:none;fill-rule:nonzero;fill:rgb(3.898621%,5.099487%,5.099487%);fill-opacity:1;" d="M 155.4375 206.429688 C 160.957031 207.390625 159.222656 207.160156 159.585938 209.183594 C 158.839844 209.167969 151.597656 207.652344 151.734375 207.027344 L 152.402344 205.113281 C 154.335938 204.113281 157.335938 203.066406 157.386719 201.257813 C 157.457031 198.972656 153.613281 200.464844 153.367188 200.222656 L 153.554688 198.546875 C 158.957031 196.644531 162.730469 202.222656 157.492188 204.554688 C 156.636719 204.933594 155.835938 205.699219 155.4375 206.429688 "/>
<path style=" stroke:none;fill-rule:nonzero;fill:rgb(11.399841%,12.199402%,11.799622%);fill-opacity:1;" d="M 157.507813 211.308594 C 158.570313 211.488281 157.507813 212.261719 157.507813 212.261719 C 156.132813 211.71875 147.929688 209.605469 146.335938 209.183594 C 146.035156 209.105469 146.613281 206.9375 146.742188 206.605469 C 147.378906 204.976563 147.570313 203.660156 147.988281 202.222656 C 148.183594 201.535156 149.40625 195.6875 149.851563 195.675781 C 150.785156 196.300781 150.464844 196.613281 150.269531 197.328125 C 148.941406 202.222656 148.242188 203.835938 147.566406 207.597656 C 147.566406 207.597656 154.691406 210.828125 157.507813 211.308594 "/>
<path style=" stroke:none;fill-rule:nonzero;fill:rgb(11.399841%,12.199402%,11.799622%);fill-opacity:1;" d="M 134.101563 206.355469 C 135.164063 206.539063 133.898438 207.148438 133.898438 207.148438 C 132.65625 206.664063 122.855469 205.085938 123.246094 204.171875 C 123.246094 204.171875 123.390625 202.605469 123.519531 202.277344 C 124.152344 200.648438 124.347656 199.332031 124.761719 197.894531 C 124.960938 197.207031 126.183594 191.355469 126.628906 191.34375 C 127.5625 191.96875 127.238281 192.28125 127.046875 193 C 125.714844 197.894531 125.101563 199.390625 124.421875 203.152344 C 124.421875 203.152344 131.285156 205.875 134.101563 206.355469 "/>
<path style=" stroke:none;fill-rule:nonzero;fill:rgb(65.098572%,80.39856%,21.998596%);fill-opacity:1;" d="M 126.4375 270.128906 C 125.542969 270.976563 114.628906 268.488281 112.804688 267.890625 C 111.328125 267.40625 110.1875 267.175781 109.925781 265.390625 C 109.699219 260.773438 111.472656 256.394531 112.398438 251.949219 L 129.183594 255.238281 C 129.890625 256.277344 128.390625 262.839844 128.015625 264.464844 C 127.574219 266.371094 127.039063 268.269531 126.4375 270.128906 "/>
<path style=" stroke:none;fill-rule:nonzero;fill:rgb(11.399841%,12.199402%,11.799622%);fill-opacity:1;" d="M 112.398438 265.191406 C 116.316406 266.015625 120.03125 267.066406 123.902344 268.074219 C 124.609375 268.261719 125.09375 267.695313 124.898438 268.929688 C 121.824219 268.800781 118.988281 267.84375 115.953125 267.226563 C 115.007813 267.035156 111.734375 266.433594 111.234375 265.945313 C 110.265625 265.003906 111.023438 263.4375 111.140625 262.480469 C 111.4375 259.980469 111.835938 256.53125 112.792969 254.203125 C 113.050781 253.574219 113.308594 253.199219 113.847656 252.78125 L 114.765625 253.792969 "/>
<path style=" stroke:none;fill-rule:nonzero;fill:rgb(3.898621%,5.099487%,5.099487%);fill-opacity:1;" d="M 121.089844 258.570313 L 122.746094 258.570313 L 122.558594 260.257813 L 121.519531 260.671875 C 122.507813 263.238281 121.054688 263.976563 119.246094 262 L 116.953125 262.296875 C 116.738281 261.15625 117.175781 260.652344 117.78125 259.816406 L 116.929688 259.574219 L 116.953125 257.742188 L 118.992188 258.148438 C 119.421875 255.617188 122.078125 256.480469 121.089844 258.570313 "/>
<path style=" stroke:none;fill-rule:nonzero;fill:rgb(3.898621%,5.099487%,5.099487%);fill-opacity:1;" d="M 180.667969 210.96875 C 181.085938 208.972656 179.53125 208.40625 177.78125 208.5 C 177.585938 205.304688 178.945313 207.050781 180.472656 206.867188 C 182.214844 206.660156 181.453125 205.132813 179.976563 204.828125 C 179.0625 204.640625 178.320313 205.339844 177.785156 205.007813 C 176.066406 203.9375 177.832031 202.621094 179.539063 202.777344 C 181.273438 202.933594 183.742188 204.117188 183.589844 206.207031 C 183.519531 207.207031 182.503906 207.84375 182.394531 208.347656 C 182.316406 208.730469 182.871094 209.769531 182.746094 210.761719 C 182.457031 213.128906 180.03125 213.308594 178.078125 212.960938 C 176.382813 212.660156 174.6875 211.382813 176.335938 209.746094 C 177.703125 210.707031 178.988281 211.746094 180.667969 210.96875 "/>
<path style=" stroke:none;fill-rule:nonzero;fill:rgb(12.199402%,13.299561%,12.5%);fill-opacity:1;" d="M 170.960938 213.097656 C 174.585938 214.414063 179.855469 215.210938 183.597656 216.085938 C 184.296875 216.246094 184.96875 216.285156 184.730469 217.222656 C 180.03125 216.398438 174.425781 215.402344 169.90625 213.871094 C 169.386719 211.769531 170.945313 209.246094 171.257813 207.148438 L 173.4375 200.640625 C 174.355469 201.261719 174.105469 201.570313 173.859375 202.296875 C 172.488281 206.355469 170.570313 209.589844 170.960938 213.097656 "/>
<path style=" stroke:none;fill-rule:nonzero;fill:rgb(65.098572%,80.39856%,21.998596%);fill-opacity:1;" d="M 116.539063 231.257813 C 118.570313 231.925781 132.820313 233.835938 133.316406 234.550781 C 133.667969 235.050781 133.492188 235.40625 133.414063 235.921875 C 132.75 240.28125 131.125 244.765625 130.539063 249.191406 C 130.003906 250.546875 128.824219 249.597656 127.898438 249.484375 C 124.507813 249.082031 121.054688 248.589844 117.769531 247.613281 C 115.214844 246.851563 114.109375 246.503906 114.027344 243.464844 "/>
<path style=" stroke:none;fill-rule:nonzero;fill:rgb(11.399841%,12.199402%,11.799622%);fill-opacity:1;" d="M 116.550781 244.902344 L 127.832031 246.65625 L 128.953125 248.226563 C 124.554688 247.523438 119.996094 247.070313 115.785156 245.664063 C 115.246094 244.441406 114.734375 243.660156 114.894531 242.242188 C 115.113281 240.300781 116.917969 236.007813 117.585938 233.753906 C 117.730469 233.269531 117.605469 232.15625 118.398438 232.503906 C 119.140625 232.824219 118.671875 234.507813 118.574219 235.15625 C 118.367188 236.550781 116.097656 244.535156 116.550781 244.902344 "/>
<path style=" stroke:none;fill-rule:nonzero;fill:rgb(3.898621%,5.099487%,5.099487%);fill-opacity:1;" d="M 123.117188 244.042969 C 122.460938 244.507813 120.753906 243.972656 121.144531 242.695313 C 121.402344 241.863281 125.9375 236.875 125.644531 236.640625 C 124.46875 236.449219 123.144531 236.292969 122.03125 235.890625 C 121.347656 235.644531 121.273438 235.574219 121.507813 234.777344 C 121.660156 234.253906 122.4375 234.113281 122.957031 234.128906 C 124.015625 234.15625 128.285156 235.035156 128.511719 236.066406 C 128.6875 236.859375 124.226563 242.246094 123.382813 243.296875 C 123.195313 243.527344 123.199219 243.984375 123.117188 244.042969 "/>
<path style=" stroke:none;fill-rule:nonzero;fill:rgb(65.098572%,80.39856%,21.998596%);fill-opacity:1;" d="M 144.265625 214.703125 C 146.257813 215.527344 160.5625 217.699219 161.046875 218.40625 C 161.566406 219.171875 160.925781 222.402344 160.71875 223.507813 C 160.484375 224.78125 158.464844 232.78125 157.945313 233.148438 C 156.992188 233.816406 151.816406 232.683594 150.375 232.390625 C 148.527344 232.019531 145.050781 231.308594 143.425781 230.648438 C 141.179688 229.746094 141.582031 227.003906 141.804688 224.867188 C 142.144531 221.558594 143.574219 217.96875 144.265625 214.703125 "/>
<path style=" stroke:none;fill-rule:nonzero;fill:rgb(3.898621%,5.099487%,5.099487%);fill-opacity:1;" d="M 150.472656 221.738281 C 157.730469 221.933594 154.46875 231.417969 148.25 227.894531 C 147.21875 227.308594 147.019531 226.628906 147.160156 225.464844 C 148.523438 225.039063 149.101563 226.203125 150.03125 226.523438 C 152.25 227.292969 153.53125 224.785156 151.164063 223.703125 C 150.410156 223.363281 149.855469 223.992188 149.085938 223.769531 C 147.039063 223.171875 149.007813 219.890625 149.261719 218.460938 C 150.601563 218.304688 154.996094 218.53125 155.4375 219.882813 C 156.175781 222.136719 150.011719 219.144531 150.472656 221.738281 "/>
<path style=" stroke:none;fill-rule:nonzero;fill:rgb(12.199402%,13.299561%,12.5%);fill-opacity:1;" d="M 143.847656 229.402344 C 142.453125 228.433594 142.441406 227.296875 142.632813 225.691406 C 142.683594 225.25 143.746094 220.617188 144.679688 221.742188 C 145.050781 222.191406 143.410156 227.363281 144.65625 228.175781 L 154.390625 230.464844 L 155.496094 232.046875 "/>
<path style=" stroke:none;fill-rule:nonzero;fill:rgb(3.898621%,5.099487%,5.099487%);fill-opacity:1;" d="M 145.917969 217.601563 L 144.886719 220.914063 C 143.972656 220.367188 144.722656 219.289063 145 218.527344 C 145.242188 217.863281 144.746094 217.402344 145.917969 217.601563 "/>
<path style=" stroke:none;fill-rule:nonzero;fill:rgb(16.099548%,45.498657%,45.899963%);fill-opacity:1;" d="M 186.679688 173.171875 C 187.191406 179.335938 188.734375 191.507813 188.734375 191.507813 L 128.117188 180.144531 L 126.46875 162.980469 "/>
<path style=" stroke:none;fill-rule:nonzero;fill:rgb(12.199402%,13.299561%,12.5%);fill-opacity:1;" d="M 140.953125 174.566406 L 140.539063 171.253906 L 141.78125 171.253906 L 142.191406 177.464844 C 141.738281 178.007813 138.808594 174.195313 138.882813 173.324219 C 138.199219 173.21875 138.488281 173.882813 138.472656 174.355469 C 138.4375 175.238281 138.972656 176.988281 137.644531 176.632813 L 136.816406 170.429688 C 139.1875 170.199219 139.328125 173.507813 140.953125 174.566406 "/>
<path style=" stroke:none;fill-rule:nonzero;fill:rgb(12.199402%,13.299561%,12.5%);fill-opacity:1;" d="M 175.714844 180.773438 C 176.398438 180.890625 176.183594 179.738281 176.144531 179.308594 C 176.09375 178.742188 175.671875 177.910156 175.710938 177.675781 C 175.757813 177.386719 176.382813 176.8125 176.757813 177.453125 C 177.472656 178.675781 177.417969 180.921875 177.589844 182.421875 C 177.660156 183.066406 177.921875 183.132813 177.164063 183.664063 C 176.011719 183.589844 174.800781 180.320313 173.851563 179.53125 L 174.058594 182.839844 L 172.816406 182.84375 L 172.386719 180.167969 L 172.613281 176.636719 C 173.472656 176.410156 175.511719 179.921875 175.714844 180.773438 "/>
<path style=" stroke:none;fill-rule:nonzero;fill:rgb(12.199402%,13.299561%,12.5%);fill-opacity:1;" d="M 182.738281 178.308594 L 182.746094 179.53125 C 181.714844 178.980469 180.300781 177.984375 179.480469 179.367188 C 178.925781 180.992188 180.199219 182.796875 181.71875 183.253906 C 182.714844 183.554688 182.300781 182.207031 182.308594 181.628906 C 181.46875 181.617188 180.546875 181.46875 180.679688 180.359375 C 183.5 180.199219 183.875 181.558594 183.578125 184.085938 C 180.589844 184.738281 177.605469 182.550781 178.265625 179.402344 C 178.789063 176.933594 181.003906 177.601563 182.738281 178.308594 "/>
<path style=" stroke:none;fill-rule:nonzero;fill:rgb(12.199402%,13.299561%,12.5%);fill-opacity:1;" d="M 135.988281 170.839844 C 135.683594 170.972656 132.457031 169.761719 133.09375 171.046875 C 133.71875 172.308594 135.171875 171.761719 135.984375 172.703125 L 133.507813 172.910156 L 133.503906 174.5625 C 134.253906 174.476563 134.867188 174.589844 135.589844 174.769531 C 136.316406 174.953125 136.5625 174.945313 136.402344 175.804688 L 132.722656 175.347656 L 131.851563 169.1875 C 132.03125 169.007813 136.421875 169.308594 135.988281 170.839844 "/>
<path style=" stroke:none;fill-rule:nonzero;fill:rgb(12.199402%,13.299561%,12.5%);fill-opacity:1;" d="M 146.746094 172.085938 L 146.128906 173.320313 L 143.851563 172.496094 C 143.757813 174.105469 146.324219 174.082031 146.960938 174.972656 C 147.550781 175.804688 147.539063 176.976563 146.769531 177.691406 C 145.316406 178.308594 143.960938 177.542969 143.023438 176.429688 L 145.710938 176.636719 C 146.644531 175.066406 144.457031 174.917969 143.628906 174.167969 C 142.761719 173.386719 142.164063 172.105469 143.425781 171.453125 C 144.742188 170.769531 145.503906 171.957031 146.746094 172.085938 "/>
<path style=" stroke:none;fill-rule:nonzero;fill:rgb(12.199402%,13.299561%,12.5%);fill-opacity:1;" d="M 154.195313 174.566406 C 153.761719 174.945313 151.214844 172.433594 150.875 174.761719 C 150.484375 177.4375 152.121094 178.820313 154.609375 177.878906 L 154.609375 179.117188 C 151.265625 179.644531 149.273438 177.730469 149.65625 174.371094 C 149.6875 174.101563 150.015625 173.054688 150.121094 172.972656 C 151.132813 172.203125 154.257813 172.75 154.195313 174.566406 "/>
<path style=" stroke:none;fill-rule:nonzero;fill:rgb(12.199402%,13.299561%,12.5%);fill-opacity:1;" d="M 161.644531 174.566406 L 162.519531 179.902344 C 162.964844 180.210938 165.300781 179.675781 164.953125 181.1875 L 161.246094 180.757813 L 160.476563 175.171875 "/>
<path style=" stroke:none;fill-rule:nonzero;fill:rgb(12.199402%,13.299561%,12.5%);fill-opacity:1;" d="M 166.195313 175.394531 L 167.070313 180.730469 C 167.515625 181.039063 169.851563 180.503906 169.507813 182.011719 L 165.800781 181.585938 L 165.027344 176 "/>
<path style=" stroke:none;fill-rule:nonzero;fill:rgb(12.199402%,13.299561%,12.5%);fill-opacity:1;" d="M 171.574219 182.425781 C 170.796875 182.542969 170.445313 182.125 170.332031 181.394531 C 170.066406 179.679688 169.84375 177.953125 169.921875 176.222656 L 171.113281 176.890625 "/>
<path style=" stroke:none;fill-rule:nonzero;fill:rgb(12.199402%,13.299561%,12.5%);fill-opacity:1;" d="M 157.882813 173.777344 C 158.007813 173.90625 159.164063 176.550781 159.371094 177.046875 C 159.59375 177.585938 160.664063 180.058594 160.402344 180.359375 C 159.222656 180.476563 158.9375 179.179688 158.714844 178.324219 C 157.484375 178.167969 156.289063 178.066406 156.261719 179.53125 L 155.042969 178.875 L 156.285156 173.753906 "/>
<path style=" stroke:none;fill-rule:nonzero;fill:rgb(16.099548%,45.498657%,45.899963%);fill-opacity:1;" d="M 157.917969 177.046875 L 156.679688 177.046875 L 157.09375 175.394531 C 157.921875 175.613281 158.023438 176.273438 157.917969 177.046875 "/>
<path style=" stroke:none;fill-rule:nonzero;fill:rgb(65.098572%,80.39856%,21.998596%);fill-opacity:1;" d="M 138.441406 213.910156 C 139.21875 214.734375 136.15625 227.175781 135.1875 229.007813 C 134.410156 229.566406 133.613281 228.882813 132.863281 228.796875 C 129.183594 228.359375 125.394531 227.675781 121.820313 226.597656 C 119.71875 225.964844 119.117188 225.945313 118.691406 223.519531 C 118.414063 221.925781 120.121094 213.945313 120.777344 212.117188 C 120.953125 211.628906 121.097656 211.132813 121.484375 210.757813 C 122.390625 210.152344 125.796875 210.820313 127.058594 211.015625 C 130.914063 211.605469 134.742188 212.726563 138.441406 213.910156 "/>
<path style=" stroke:none;fill-rule:nonzero;fill:rgb(11.399841%,12.199402%,11.799622%);fill-opacity:1;" d="M 123.574219 211.808594 L 121.53125 223.785156 C 121.90625 224.160156 129.691406 225.523438 131.121094 225.992188 C 131.835938 226.230469 132.496094 226.097656 132.261719 227.121094 C 131.527344 227.15625 130.816406 227.140625 130.085938 227.023438 C 127.71875 226.648438 124.03125 226.015625 121.796875 225.382813 C 121.140625 225.195313 120.59375 224.683594 119.886719 224.601563 C 119.03125 223.71875 121.476563 214.269531 122.242188 212.753906 C 122.542969 212.164063 122.800781 211.664063 123.574219 211.808594 "/>
<path style=" stroke:none;fill-rule:nonzero;fill:rgb(3.898621%,5.099487%,5.099487%);fill-opacity:1;" d="M 131.433594 220.496094 L 132.679688 220.503906 C 132.84375 221.914063 132.511719 223.066406 131.035156 222.15625 L 130.585938 224.203125 L 129.171875 224.238281 C 128.828125 224.191406 128.464844 222.140625 128.953125 221.742188 C 128.019531 221.769531 124.21875 221.203125 124.429688 219.929688 C 124.652344 218.597656 126.300781 217.925781 127.09375 217.191406 C 128.433594 215.949219 130.113281 213.335938 132.074219 214.6875 C 132.828125 215.839844 131.207031 219 131.433594 220.496094 "/>
<path style=" stroke:none;fill-rule:nonzero;fill:rgb(65.098572%,80.39856%,21.998596%);fill-opacity:1;" d="M 129.367188 220.085938 L 127.714844 219.464844 L 129.78125 217.601563 "/>
<path style=" stroke:none;fill-rule:nonzero;fill:rgb(65.098572%,80.39856%,21.998596%);fill-opacity:1;" d="M 160.441406 255.636719 C 160.339844 250.59375 161.929688 245.691406 162.890625 240.777344 L 179.574219 244.15625 L 180.253906 244.738281 C 179.394531 249.429688 178.925781 254.320313 177.394531 258.804688 C 175.441406 260.179688 163.0625 256.953125 160.441406 255.636719 "/>
<path style=" stroke:none;fill-rule:nonzero;fill:rgb(12.199402%,13.299561%,12.5%);fill-opacity:1;" d="M 164.953125 242.433594 L 162.882813 254.433594 L 168.542969 255.597656 L 174.472656 257.328125 C 174.472656 258.238281 166.984375 256.492188 161.699219 254.796875 C 161.425781 251.210938 162.308594 246.773438 163.6875 243.441406 C 163.957031 242.796875 164.089844 242.285156 164.953125 242.433594 "/>
<path style=" stroke:none;fill-rule:nonzero;fill:rgb(3.898621%,5.099487%,5.099487%);fill-opacity:1;" d="M 173.136719 253.097656 C 171.996094 254.304688 169.113281 254.335938 167.699219 253.546875 C 166.738281 253.011719 166.113281 252.273438 167.246094 251.539063 L 170.0625 252.296875 L 171.988281 250.914063 C 171.460938 250.492188 170.519531 250.792969 169.785156 250.636719 C 169.453125 250.5625 167.984375 249.875 167.828125 249.621094 C 166.648438 246.8125 167.667969 244.058594 170.953125 244.058594 C 174.445313 244.0625 174.894531 247.175781 174.464844 250.078125 C 174.40625 250.476563 173.339844 252.882813 173.136719 253.097656 "/>
<path style=" stroke:none;fill-rule:nonzero;fill:rgb(65.098572%,80.39856%,21.998596%);fill-opacity:1;" d="M 170.164063 246.191406 C 172.996094 245.359375 172.863281 248.765625 171.761719 249.042969 C 169.984375 249.476563 168.472656 246.691406 170.164063 246.191406 "/>
<path style=" stroke:none;fill-rule:nonzero;fill:rgb(65.098572%,80.39856%,21.998596%);fill-opacity:1;" d="M 156.640625 239.160156 C 157.183594 239.710938 154.867188 249.210938 154.410156 250.71875 C 154.171875 251.503906 153.5 253.886719 152.964844 254.257813 C 149.191406 253.765625 145.378906 253.1875 141.683594 252.253906 C 139.78125 251.773438 137.144531 251.550781 136.824219 249.253906 L 139.328125 235.425781 C 145.1875 235.835938 151.171875 236.957031 156.640625 239.160156 "/>
<path style=" stroke:none;fill-rule:nonzero;fill:rgb(10.598755%,10.998535%,10.998535%);fill-opacity:1;" d="M 140.953125 238.292969 C 140.675781 241.839844 139.988281 245.6875 138.882813 249.050781 C 142.574219 250.164063 146.1875 251.082031 149.929688 252 C 150.328125 252.097656 151.167969 252.175781 151.0625 252.722656 C 146.664063 252.484375 142.421875 251.257813 138.117188 250.230469 C 137.984375 249.335938 137.566406 248.578125 137.644531 247.636719 C 137.8125 245.703125 139.488281 241.550781 140.101563 239.289063 C 140.289063 238.589844 139.714844 238.097656 140.953125 238.292969 "/>
<path style=" stroke:none;fill-rule:nonzero;fill:rgb(3.898621%,5.099487%,5.099487%);fill-opacity:1;" d="M 143.835938 243.640625 C 141.15625 237.695313 151.023438 237.847656 150.476563 242.625 C 150.371094 243.570313 149.390625 244.355469 149.367188 244.691406 C 149.328125 245.257813 149.777344 246.140625 149.636719 247.183594 C 149.113281 251.019531 141.753906 249.601563 142.191406 245.550781 C 142.285156 244.660156 142.863281 243.679688 143.835938 243.640625 "/>
<path style=" stroke:none;fill-rule:nonzero;fill:rgb(65.098572%,80.39856%,21.998596%);fill-opacity:1;" d="M 145.355469 244.964844 C 146.335938 244.84375 146.84375 245.050781 147.378906 245.730469 C 148.324219 247.609375 145.398438 248.078125 144.457031 246.578125 C 144.035156 245.902344 144.835938 245.027344 145.355469 244.964844 "/>
<path style=" stroke:none;fill-rule:nonzero;fill:rgb(65.098572%,80.39856%,21.998596%);fill-opacity:1;" d="M 148.402344 242.84375 C 147.703125 243.621094 144.445313 242.40625 145.507813 241.191406 C 146.136719 240.46875 146.972656 240.722656 148.003906 241.382813 C 148.921875 241.972656 148.65625 242.5625 148.402344 242.84375 "/>
<path style=" stroke:none;fill-rule:nonzero;fill:rgb(65.098572%,80.39856%,21.998596%);fill-opacity:1;" d="M 181.890625 238.261719 C 181.171875 238.941406 172.992188 237.316406 171.476563 236.941406 C 170.160156 236.621094 166.136719 235.691406 165.566406 234.578125 C 164.113281 231.746094 167.367188 223.34375 167.867188 220.101563 C 168.601563 219.25 182.738281 222.140625 184.636719 223.371094 C 185.15625 224.113281 184.550781 227.039063 184.371094 228.121094 C 184.152344 229.4375 182.324219 237.855469 181.890625 238.261719 "/>
<path style=" stroke:none;fill-rule:nonzero;fill:rgb(11.399841%,12.199402%,11.799622%);fill-opacity:1;" d="M 167.851563 233.328125 C 171.59375 234.019531 175.214844 235.421875 178.917969 236.296875 C 179.65625 236.472656 180.292969 236.519531 180.050781 237.433594 C 179.691406 237.757813 173.308594 235.980469 172.230469 235.777344 C 168.464844 235.066406 165.773438 235.285156 166.21875 230.65625 C 166.34375 229.371094 168.265625 221.363281 169.300781 221.328125 C 170.039063 221.851563 169.996094 222.351563 169.90625 223.171875 C 169.546875 226.417969 168.15625 230.003906 167.851563 233.328125 "/>
<path style=" stroke:none;fill-rule:nonzero;fill:rgb(3.898621%,5.099487%,5.099487%);fill-opacity:1;" d="M 179.421875 224.65625 C 179.648438 224.863281 179.4375 226.589844 178.8125 226.710938 C 178.019531 226.855469 176.1875 224.617188 174.886719 226.914063 L 177.492188 227.621094 C 180.398438 229.054688 179.191406 234.191406 175.921875 234.1875 C 169.527344 234.179688 171.316406 224.328125 175.9375 223.800781 C 176.464844 223.742188 179.164063 224.417969 179.421875 224.65625 "/>
<path style=" stroke:none;fill-rule:nonzero;fill:rgb(65.098572%,80.39856%,21.998596%);fill-opacity:1;" d="M 174.089844 231.640625 L 174.058594 229.1875 L 176.769531 229.582031 C 177.5625 232.113281 176.171875 232.578125 174.089844 231.640625 "/>
<path style=" stroke:none;fill-rule:nonzero;fill:rgb(65.098572%,80.39856%,21.998596%);fill-opacity:1;" d="M 172.785156 279.644531 C 172.171875 280.226563 164.214844 278.652344 162.789063 278.324219 C 161.179688 277.957031 156.398438 276.917969 155.625 275.542969 L 158.746094 261.464844 C 160.769531 262.132813 175.050781 264.046875 175.53125 264.753906 C 176.054688 265.523438 175.449219 268.40625 175.265625 269.503906 C 175.050781 270.820313 173.21875 279.234375 172.785156 279.644531 "/>
<path style=" stroke:none;fill-rule:nonzero;fill:rgb(12.199402%,13.299561%,12.5%);fill-opacity:1;" d="M 160.816406 262.710938 L 158.753906 275.117188 L 166.605469 276.617188 C 167.667969 276.953125 168.773438 277.125 169.804688 277.574219 C 170.460938 277.859375 170.816406 277.546875 170.632813 278.589844 C 170.148438 278.988281 163.722656 277.675781 162.539063 277.371094 C 157.09375 275.96875 156.722656 276.105469 157.070313 273.6875 C 157.386719 271.46875 158.597656 265.875 159.558594 263.726563 C 159.84375 263.09375 159.917969 262.554688 160.816406 262.710938 "/>
<path style=" stroke:none;fill-rule:nonzero;fill:rgb(3.898621%,5.099487%,5.099487%);fill-opacity:1;" d="M 169.097656 265.605469 C 169.847656 265.515625 170.339844 265.574219 170.738281 266.257813 L 170.332031 268.089844 C 171.933594 267.910156 172.632813 269.101563 171.160156 269.980469 C 170.585938 270.320313 170.011719 269.546875 169.496094 269.914063 L 168.679688 271.191406 L 170.746094 272.429688 L 169.664063 273.417969 L 167.855469 273.054688 L 167.414063 275.101563 L 165.785156 275.125 L 166.199219 272.640625 L 165.160156 272.230469 L 163.714844 274.523438 L 162.476563 274.296875 L 162.890625 271.8125 L 161.644531 271.808594 C 161.234375 268.769531 163.160156 270.394531 163.722656 269.988281 L 164.539063 268.710938 L 162.882813 268.503906 C 162.316406 265.277344 165.035156 267.183594 165.363281 266.84375 C 165.367188 266.234375 166.027344 264.539063 166.816406 264.777344 C 167.808594 265.078125 167.03125 267.140625 168.058594 267.671875 "/>
<path style=" stroke:none;fill-rule:nonzero;fill:rgb(65.098572%,80.39856%,21.998596%);fill-opacity:1;" d="M 167.4375 269.332031 C 167.535156 270.375 166.777344 270.726563 165.78125 270.570313 C 165.683594 269.527344 166.441406 269.175781 167.4375 269.332031 "/>
<path style=" stroke:none;fill-rule:nonzero;fill:rgb(65.098572%,80.39856%,21.998596%);fill-opacity:1;" d="M 135.816406 256.113281 L 151.945313 259.785156 C 152.253906 260.226563 152.1875 261.503906 152.140625 262.101563 C 152.023438 263.546875 149.46875 274.078125 148.84375 274.527344 C 148.050781 275.097656 147.261719 274.386719 146.523438 274.3125 C 143.347656 274 137.566406 273.3125 134.742188 272.023438 C 130.757813 270.207031 133.472656 262.308594 134.53125 258.976563 C 134.757813 258.253906 135.207031 256.292969 135.816406 256.113281 "/>
<path style=" stroke:none;fill-rule:nonzero;fill:rgb(10.598755%,10.998535%,10.998535%);fill-opacity:1;" d="M 147.089844 272.691406 C 147.476563 273.960938 145.625 273.578125 144.832031 273.496094 C 142.121094 273.210938 139.320313 272.234375 136.625 271.796875 C 134.082031 271.386719 133.28125 270 133.527344 267.488281 C 133.863281 263.996094 135.507813 260.789063 135.988281 257.328125 C 138.585938 257.644531 136.449219 260.371094 136.074219 261.761719 C 135.488281 263.921875 135.703125 265.761719 135.589844 267.898438 C 135.546875 268.730469 134.878906 269.476563 135.351563 270.171875 "/>
<path style=" stroke:none;fill-rule:nonzero;fill:rgb(3.898621%,5.099487%,5.099487%);fill-opacity:1;" d="M 145.011719 260.308594 C 145.332031 260.628906 145.882813 262.328125 145.9375 262.898438 C 146.199219 265.632813 145.472656 269.195313 142.304688 269.675781 C 135.933594 270.636719 136.890625 258.042969 143.15625 259.472656 C 143.382813 259.523438 144.921875 260.21875 145.011719 260.308594 "/>
<path style=" stroke:none;fill-rule:nonzero;fill:rgb(65.098572%,80.39856%,21.998596%);fill-opacity:1;" d="M 141.613281 261.503906 C 145.035156 260.464844 144.109375 267.53125 141.988281 267.699219 C 138.859375 267.945313 140.199219 261.929688 141.613281 261.503906 "/>
<path style=" stroke:none;fill-rule:nonzero;fill:rgb(65.098572%,80.39856%,21.998596%);fill-opacity:1;" d="M 168.234375 298.679688 C 167.679688 299.203125 160.382813 297.664063 159.0625 297.359375 C 157.457031 296.992188 153.484375 296.261719 152.527344 295.207031 C 150.304688 292.769531 153.117188 285.988281 154.1875 283.164063 L 170.566406 286.683594 C 171.675781 288.265625 168.933594 296.582031 168.234375 298.679688 "/>
<path style=" stroke:none;fill-rule:nonzero;fill:rgb(12.199402%,13.299561%,12.5%);fill-opacity:1;" d="M 166.957031 297.652344 L 159.878906 296.542969 L 153.558594 294.785156 C 151.726563 293.082031 154.679688 294.191406 155.777344 294.421875 C 157.566406 294.789063 162.96875 295.894531 164.738281 296.238281 C 166.523438 296.582031 168.691406 297.285156 166.957031 297.652344 "/>
<path style=" stroke:none;fill-rule:nonzero;fill:rgb(11.399841%,11.399841%,11.399841%);fill-opacity:1;" d="M 162.035156 291.65625 C 162.273438 291.402344 162.359375 289.867188 163.289063 289.390625 C 166.476563 287.761719 168.550781 292.367188 165.375 293.957031 C 163.765625 294.765625 156.5 293.386719 155.90625 291.410156 C 154.945313 288.191406 159.652344 286.71875 160.363281 289.046875 C 160.628906 289.914063 159.921875 290.636719 159.996094 291.03125 C 160.128906 291.683594 161.796875 291.90625 162.035156 291.65625 "/>
<path style=" stroke:none;fill-rule:nonzero;fill:rgb(65.098572%,80.39856%,21.998596%);fill-opacity:1;" d="M 158.746094 290.023438 C 159.238281 290.511719 157.925781 291.664063 157.09375 291.261719 C 157.195313 290.695313 158.402344 289.679688 158.746094 290.023438 "/>
<path style=" stroke:none;fill-rule:nonzero;fill:rgb(65.098572%,80.39856%,21.998596%);fill-opacity:1;" d="M 165.367188 291.265625 C 164.894531 292.339844 163.480469 293.285156 163.714844 291.679688 "/>
<path style=" stroke:none;fill-rule:nonzero;fill:rgb(12.199402%,13.299561%,12.5%);fill-opacity:1;" d="M 142.9375 292.546875 L 135.859375 291.4375 L 129.539063 289.679688 C 127.707031 287.976563 130.65625 289.089844 131.757813 289.316406 C 133.546875 289.683594 138.945313 290.789063 140.71875 291.132813 C 142.5 291.476563 144.667969 292.179688 142.9375 292.546875 "/>
<path style=" stroke:none;fill-rule:nonzero;fill:rgb(65.098572%,80.39856%,21.998596%);fill-opacity:1;" d="M 122.714844 288.75 C 122.109375 289.316406 114.875 287.746094 113.542969 287.429688 C 112.246094 287.121094 105.964844 285.664063 105.898438 284.453125 L 107.851563 273.46875 L 125.042969 276.757813 C 126.160156 278.394531 123.351563 286.597656 122.714844 288.75 "/>
<path style=" stroke:none;fill-rule:nonzero;fill:rgb(16.099548%,45.498657%,45.899963%);fill-opacity:1;" d="M 118.726563 306.519531 C 118.121094 307.089844 110.886719 305.515625 109.558594 305.199219 C 108.261719 304.894531 101.976563 303.4375 101.910156 302.222656 L 103.867188 291.242188 L 121.058594 294.527344 C 122.171875 296.164063 119.363281 304.367188 118.726563 306.519531 "/>
<path style=" stroke:none;fill-rule:nonzero;fill:rgb(16.099548%,45.498657%,45.899963%);fill-opacity:1;" d="M 141.792969 311.597656 C 141.1875 312.164063 133.953125 310.589844 132.621094 310.277344 C 131.328125 309.96875 125.046875 308.511719 124.976563 307.296875 L 126.933594 296.316406 L 144.121094 299.601563 C 145.238281 301.238281 142.433594 309.445313 141.792969 311.597656 "/>
<path style=" stroke:none;fill-rule:nonzero;fill:rgb(16.099548%,45.498657%,45.899963%);fill-opacity:1;" d="M 163.746094 316.792969 C 163.140625 317.359375 155.90625 315.785156 154.574219 315.472656 C 153.28125 315.164063 146.996094 313.707031 146.929688 312.496094 L 148.886719 301.511719 L 166.074219 304.796875 C 167.191406 306.433594 164.382813 314.640625 163.746094 316.792969 "/>
<path style=" stroke:none;fill-rule:nonzero;fill:rgb(10.598755%,10.998535%,10.998535%);fill-opacity:1;" d="M 121.507813 286.710938 C 121.835938 287.9375 120.484375 287.617188 119.664063 287.515625 C 117 287.199219 111.726563 286.191406 109.3125 285.453125 C 108.59375 285.234375 108.3125 285.015625 107.851563 284.433594 C 108.472656 283.539063 108.582031 284.0625 109.3125 284.210938 C 113.371094 285.039063 117.375 286.238281 121.507813 286.710938 "/>
<path style=" stroke:none;fill-rule:nonzero;fill:rgb(3.898621%,5.099487%,5.099487%);fill-opacity:1;" d="M 115.300781 281.328125 L 116.128906 278.273438 C 116.085938 277.847656 116.882813 277.957031 117.171875 278.007813 C 118.519531 278.257813 118.875 280.554688 119.023438 281.742188 L 120.007813 278.394531 L 121.503906 278.847656 C 121.621094 279.878906 120.855469 285.246094 120.054688 285.46875 C 118.515625 285.894531 118.039063 283.226563 117.777344 282.160156 C 116.632813 282.382813 117.203125 284.382813 116.328125 284.640625 C 114.96875 285.042969 115.019531 282.152344 115.300781 281.328125 C 115.089844 281.867188 114.804688 282.507813 114.285156 283.007813 C 112.203125 285.007813 108.386719 283.359375 108.679688 280.320313 C 109.175781 275.191406 116.308594 275.964844 115.300781 281.328125 "/>
<path style=" stroke:none;fill-rule:nonzero;fill:rgb(65.098572%,80.39856%,21.998596%);fill-opacity:1;" d="M 111.828125 278.464844 C 114.644531 277.644531 113.796875 284.300781 110.789063 281.496094 C 110.550781 280.492188 110.714844 278.789063 111.828125 278.464844 "/>
<path style=" stroke:none;fill-rule:nonzero;fill:rgb(65.098572%,80.39856%,21.998596%);fill-opacity:1;" d="M 131.6875 277.640625 L 148.222656 281.71875 C 148.699219 282.394531 147.726563 286.527344 147.464844 287.636719 C 147.027344 289.484375 146.519531 291.527344 145.523438 293.144531 C 144.519531 293.8125 139.429688 292.699219 137.960938 292.394531 C 135.835938 291.957031 131.699219 291.054688 129.894531 290.113281 C 127.855469 289.046875 129.046875 285.722656 129.476563 283.714844 C 129.722656 282.5625 130.703125 277.9375 131.6875 277.640625 "/>
<path style=" stroke:none;fill-rule:nonzero;fill:rgb(3.898621%,5.099487%,5.099487%);fill-opacity:1;" d="M 136.816406 285.882813 C 136.820313 285.859375 137.222656 285.597656 137.222656 285.597656 C 137.324219 285.136719 137.253906 283.058594 137.882813 282.96875 C 139.015625 282.859375 140.070313 283.152344 141.144531 283.414063 C 142.207031 283.671875 142.734375 283.761719 144.019531 283.78125 C 144.042969 283.78125 144.066406 283.785156 144.089844 283.789063 L 146.515625 284.378906 C 146.65625 284.414063 146.753906 284.539063 146.753906 284.683594 L 146.746094 285.882813 L 143.851563 285.46875 C 143.84375 286.222656 143.777344 286.695313 143.777344 286.695313 C 144.558594 286.796875 145.695313 286.898438 146.160156 286.902344 C 146.160156 286.902344 145.988281 287.710938 145.917969 288.363281 L 143.738281 288 C 143.574219 287.972656 143.417969 288.074219 143.386719 288.238281 C 143.238281 288.976563 142.640625 289.953125 142.398438 290.433594 C 142.398438 290.433594 141.1875 290.257813 141.261719 289.953125 C 141.550781 288.75 141.765625 287.03125 142.046875 285.558594 C 142.085938 285.34375 141.679688 284.9375 141.464844 284.902344 C 140.847656 284.796875 140.3125 284.765625 139.511719 284.640625 C 139.414063 284.625 139.089844 285.46875 139.089844 285.46875 C 139.777344 285.660156 140.777344 285.902344 141.535156 286.074219 C 141.910156 286.160156 141.550781 286.75 141.367188 287.539063 L 138.769531 287.167969 C 138.601563 287.144531 138.449219 287.253906 138.417969 287.417969 L 138.105469 289.152344 C 138.078125 289.277344 137.984375 289.375 137.859375 289.398438 L 136.652344 289.101563 C 136.253906 288.578125 136.675781 286.652344 136.816406 285.882813 C 136.808594 285.90625 136.039063 287.578125 135.046875 288.046875 C 132.203125 289.390625 129.628906 287.136719 130.25 284.171875 C 130.371094 283.585938 130.671875 283.039063 131.070313 282.597656 C 134.027344 279.328125 137.570313 283.023438 136.816406 285.882813 "/>
<path style=" stroke:none;fill-rule:nonzero;fill:rgb(65.098572%,80.39856%,21.998596%);fill-opacity:1;" d="M 132.277344 286.699219 C 129.957031 285.074219 134.105469 281.378906 134.761719 284.417969 C 135.21875 286.539063 134.015625 287.316406 132.277344 286.699219 "/>
<use xlink:href="#surface12" transform="matrix(1,0,0,1,113,150)"/>
<g clip-path="url(#clip7)" clip-rule="nonzero">
<use xlink:href="#surface11" transform="matrix(1,0,0,1,112,190)" mask="url(#mask0)"/>
</g>
<g clip-path="url(#clip19)" clip-rule="nonzero">
<path style="fill:none;stroke-width:60.94;stroke-linecap:square;stroke-linejoin:bevel;stroke:rgb(2.398682%,3.49884%,3.49884%);stroke-opacity:1;stroke-miterlimit:10;" d="M 1110.234375 3073.465625 C 1110.234375 3073.465625 27.539063 2726.395312 79.84375 1554.79375 C 112.578125 821.317187 626.289063 57.489062 1676.679688 41.239062 C 2843.554688 76.121875 3122.109375 1081.629687 3185.039063 1293.582812 C 3227.304688 1435.926562 3304.882813 2358.153125 2476.5625 2928.621875 " transform="matrix(0.1,0,0,-0.1,0,384.37)"/>
</g>
<g clip-path="url(#clip20)" clip-rule="nonzero">
<path style="fill:none;stroke-width:30;stroke-linecap:round;stroke-linejoin:miter;stroke:rgb(13.299561%,11.799622%,12.199402%);stroke-opacity:1;stroke-miterlimit:10;" d="M 941.875 1075.10625 L 828.945313 580.379687 C 828.945313 580.379687 804.84375 491.434375 885.390625 466.551562 C 965.976563 441.66875 1595.273438 299.129687 1595.273438 299.129687 L 1651.328125 287.1375 " transform="matrix(0.1,0,0,-0.1,0,384.37)"/>
</g>
<path style="fill:none;stroke-width:40;stroke-linecap:round;stroke-linejoin:miter;stroke:rgb(13.299561%,11.799622%,12.199402%);stroke-opacity:1;stroke-miterlimit:10;" d="M 1151.835938 1572.332812 L 961.835938 794.754687 L 1301.5625 720.770312 L 1688.007813 644.207812 L 1785.117188 1166.629687 " transform="matrix(0.1,0,0,-0.1,0,384.37)"/>
<path style="fill:none;stroke-width:20;stroke-linecap:square;stroke-linejoin:miter;stroke:rgb(2.398682%,3.49884%,3.49884%);stroke-opacity:1;stroke-miterlimit:10;" d="M 845.546875 663.973437 C 845.546875 663.973437 821.953125 569.16875 857.773438 495.340625 " transform="matrix(0.1,0,0,-0.1,0,384.37)"/>
<path style="fill:none;stroke-width:10;stroke-linecap:butt;stroke-linejoin:miter;stroke:rgb(2.398682%,3.49884%,3.49884%);stroke-opacity:1;stroke-miterlimit:10;" d="M 1968.28125 592.1375 L 1933.164063 300.2625 " transform="matrix(0.1,0,0,-0.1,0,384.37)"/>
<path style="fill:none;stroke-width:20;stroke-linecap:butt;stroke-linejoin:miter;stroke:rgb(2.398682%,3.49884%,3.49884%);stroke-opacity:1;stroke-miterlimit:10;" d="M 904.53125 338.934375 C 855.703125 430.848437 819.0625 503.895312 815.507813 519.0125 C 800.273438 584.325 894.6875 868.348437 894.6875 868.348437 " transform="matrix(0.1,0,0,-0.1,0,384.37)"/>
<path style="fill:none;stroke-width:20;stroke-linecap:butt;stroke-linejoin:miter;stroke:rgb(2.398682%,3.49884%,3.49884%);stroke-opacity:1;stroke-miterlimit:10;" d="M 825.78125 379.48125 C 776.953125 471.434375 750.3125 544.442187 746.796875 559.559375 C 731.523438 624.910937 922.96875 1512.60625 922.96875 1512.60625 " transform="matrix(0.1,0,0,-0.1,0,384.37)"/>
<path style=" stroke:none;fill-rule:nonzero;fill:rgb(2.398682%,3.49884%,3.49884%);fill-opacity:1;" d="M 165.195313 368.277344 L 74.742188 339.75 L 55.890625 322.949219 L 36.640625 294.195313 L 50.488281 326.402344 L 121.558594 369.519531 L 198.699219 372.621094 L 246.566406 340.957031 L 217.738281 339.75 L 221.050781 329.328125 L 215.984375 325.988281 L 209.476563 331.179688 L 196.828125 343.367188 L 167.621094 366.367188 "/>
<g clip-path="url(#clip21)" clip-rule="nonzero">
<path style="fill:none;stroke-width:20;stroke-linecap:butt;stroke-linejoin:miter;stroke:rgb(2.398682%,3.49884%,3.49884%);stroke-opacity:1;stroke-miterlimit:10;" d="M 1651.953125 160.926562 L 747.421875 446.2 L 558.90625 614.207812 L 366.40625 901.746875 L 504.882813 579.676562 L 1215.585938 148.504687 L 1986.992188 117.489062 L 2465.664063 434.129687 L 2177.382813 446.2 L 2210.507813 550.41875 L 2159.84375 583.817187 L 2094.765625 531.903125 L 1968.28125 410.028125 L 1676.210938 180.028125 Z M 1651.953125 160.926562 " transform="matrix(0.1,0,0,-0.1,0,384.37)"/>
</g>
<path style=" stroke:none;fill-rule:nonzero;fill:rgb(100%,100%,100%);fill-opacity:1;" d="M 39.640625 302.171875 L 65.632813 302.171875 L 63.574219 307.613281 L 41.683594 306.921875 C 41.683594 306.921875 41.667969 308.402344 39.640625 302.171875 "/>
<path style="fill:none;stroke-width:10;stroke-linecap:butt;stroke-linejoin:miter;stroke:rgb(13.299561%,11.799622%,12.199402%);stroke-opacity:1;stroke-miterlimit:10;" d="M 396.40625 821.98125 L 656.328125 821.98125 L 635.742188 767.567187 L 416.835938 774.48125 C 416.835938 774.48125 416.679688 759.676562 396.40625 821.98125 Z M 396.40625 821.98125 " transform="matrix(0.1,0,0,-0.1,0,384.37)"/>
<path style="fill-rule:nonzero;fill:rgb(100%,100%,100%);fill-opacity:1;stroke-width:10;stroke-linecap:butt;stroke-linejoin:miter;stroke:rgb(13.299561%,11.799622%,12.199402%);stroke-opacity:1;stroke-miterlimit:10;" d="M 2391.25 821.98125 L 2859.765625 821.98125 L 2829.140625 767.567187 L 2381.640625 774.48125 Z M 2391.25 821.98125 " transform="matrix(0.1,0,0,-0.1,0,384.37)"/>
<path style=" stroke:none;fill-rule:nonzero;fill:rgb(100%,100%,100%);fill-opacity:1;" d="M 43.640625 311.863281 L 61.632813 311.863281 L 60.574219 317.304688 L 45.683594 316.613281 C 45.683594 316.613281 45.667969 318.09375 43.640625 311.863281 "/>
<path style="fill:none;stroke-width:10;stroke-linecap:butt;stroke-linejoin:miter;stroke:rgb(13.299561%,11.799622%,12.199402%);stroke-opacity:1;stroke-miterlimit:10;" d="M 436.40625 725.067187 L 616.328125 725.067187 L 605.742188 670.653125 L 456.835938 677.567187 C 456.835938 677.567187 456.679688 662.7625 436.40625 725.067187 Z M 436.40625 725.067187 " transform="matrix(0.1,0,0,-0.1,0,384.37)"/>
<path style="fill-rule:nonzero;fill:rgb(100%,100%,100%);fill-opacity:1;stroke-width:10;stroke-linecap:butt;stroke-linejoin:miter;stroke:rgb(13.299561%,11.799622%,12.199402%);stroke-opacity:1;stroke-miterlimit:10;" d="M 2391.25 725.067187 L 2809.765625 725.067187 L 2779.140625 670.653125 L 2371.640625 677.567187 Z M 2391.25 725.067187 " transform="matrix(0.1,0,0,-0.1,0,384.37)"/>
<path style=" stroke:none;fill-rule:nonzero;fill:rgb(100%,100%,100%);fill-opacity:1;" d="M 234.800781 321.554688 L 274.65625 321.554688 L 270.59375 326.996094 L 226.84375 326.300781 C 226.84375 326.300781 232.84375 326.300781 234.800781 321.554688 "/>
<path style="fill:none;stroke-width:10;stroke-linecap:butt;stroke-linejoin:miter;stroke:rgb(13.299561%,11.799622%,12.199402%);stroke-opacity:1;stroke-miterlimit:10;" d="M 2348.007813 628.153125 L 2746.5625 628.153125 L 2705.9375 573.739062 L 2268.4375 580.692187 C 2268.4375 580.692187 2328.4375 580.692187 2348.007813 628.153125 Z M 2348.007813 628.153125 " transform="matrix(0.1,0,0,-0.1,0,384.37)"/>
<path style=" stroke:none;fill-rule:nonzero;fill:rgb(100%,100%,100%);fill-opacity:1;" d="M 221.941406 330.6875 L 267.796875 330.6875 L 261.734375 336.128906 L 214.984375 335.433594 C 214.984375 335.433594 219.515625 330.890625 221.941406 330.6875 "/>
<path style="fill:none;stroke-width:10;stroke-linecap:butt;stroke-linejoin:miter;stroke:rgb(13.299561%,11.799622%,12.199402%);stroke-opacity:1;stroke-miterlimit:10;" d="M 2219.414063 536.825 L 2677.96875 536.825 L 2617.34375 482.410937 L 2149.84375 489.364062 C 2149.84375 489.364062 2195.15625 534.79375 2219.414063 536.825 Z M 2219.414063 536.825 " transform="matrix(0.1,0,0,-0.1,0,384.37)"/>
<path style=" stroke:none;fill-rule:nonzero;fill:rgb(100%,100%,100%);fill-opacity:1;" d="M 212.566406 339.820313 L 256.421875 339.820313 L 242.355469 349.261719 L 198.605469 348.570313 C 201.976563 347.660156 216.808594 336.996094 212.566406 339.820313 "/>
<path style="fill:none;stroke-width:10;stroke-linecap:butt;stroke-linejoin:miter;stroke:rgb(13.299561%,11.799622%,12.199402%);stroke-opacity:1;stroke-miterlimit:10;" d="M 2125.664063 445.496875 L 2564.21875 445.496875 L 2423.554688 351.082812 L 1986.054688 357.996875 C 2019.765625 367.098437 2168.085938 473.739062 2125.664063 445.496875 Z M 2125.664063 445.496875 " transform="matrix(0.1,0,0,-0.1,0,384.37)"/>
<path style=" stroke:none;fill-rule:nonzero;fill:rgb(100%,100%,100%);fill-opacity:1;" d="M 198.429688 351.445313 L 241.285156 351.445313 C 241.285156 351.445313 224.703125 362.191406 210.222656 365.3125 C 201.484375 367.199219 177.472656 365.222656 177.472656 365.222656 C 193.316406 349.261719 198.429688 351.445313 198.429688 351.445313 "/>
<path style="fill:none;stroke-width:12.55;stroke-linecap:butt;stroke-linejoin:miter;stroke:rgb(13.299561%,11.799622%,12.199402%);stroke-opacity:1;stroke-miterlimit:10;" d="M 1984.296875 329.246875 L 2412.851563 329.246875 C 2412.851563 329.246875 2247.03125 221.785937 2102.226563 190.575 C 2014.84375 171.707812 1774.726563 191.473437 1774.726563 191.473437 C 1933.164063 351.082812 1984.296875 329.246875 1984.296875 329.246875 Z M 1984.296875 329.246875 " transform="matrix(0.1,0,0,-0.1,0,384.37)"/>
<path style="fill:none;stroke-width:49.52;stroke-linecap:butt;stroke-linejoin:miter;stroke:rgb(0.39978%,0.39978%,0.799561%);stroke-opacity:1;stroke-miterlimit:10;" d="M 3222.890625 1772.723437 C 3197.617188 2194.79375 3025.976563 2493.85625 2717.539063 2780.067187 C 2659.257813 2834.129687 2484.84375 2936.825 2474.492188 2947.059375 C 2464.882813 3067.059375 2474.53125 3042.723437 2476.367188 3091.160937 C 2477.109375 3110.926562 2474.140625 3231.551562 2476.367188 3248.465625 C 2491.796875 3364.871875 2540.820313 3383.426562 2564.726563 3425.809375 C 2580.351563 3453.426562 2595.46875 3489.559375 2598.320313 3519.090625 C 2599.882813 3556.434375 2600.742188 3594.442187 2590.117188 3630.301562 C 2543.164063 3863.7 2142.421875 3862.098437 2129.375 3581.473437 C 2128.007813 3551.942187 2156.796875 3448.895312 2166.367188 3419.403125 C 2163.632813 3396.082812 2165.390625 3369.246875 2158.828125 3343.192187 C 2153.359375 3321.395312 2125.976563 3268.348437 2088.984375 3257.371875 C 2072.421875 3252.45 2065.390625 3234.520312 2058.4375 3212.45 C 1833.75 3246.590625 1566.796875 3287.840625 1359.375 3321.395312 C 1300.859375 3333.504687 1231.953125 3337.528125 1182.695313 3292.60625 C 1147.695313 3260.457812 1143.085938 3223.270312 1130.664063 3161.473437 C 296.132813 2885.926562 -148.75 2017.996875 114.296875 1150.145312 C 365.742188 320.73125 980.46875 109.364062 1501.25 46.2 C 2365.625 -58.64375 3347.773438 608.23125 3222.890625 1772.723437 Z M 3222.890625 1772.723437 " transform="matrix(0.1,0,0,-0.1,0,384.37)"/>
<path style=" stroke:none;fill-rule:nonzero;fill:rgb(11.399841%,12.199402%,11.799622%);fill-opacity:1;" d="M 157.582031 305.503906 L 158.039063 307.949219 C 160.625 308.261719 161.613281 309.539063 158.601563 310.433594 L 158.421875 312.945313 C 156.949219 313.269531 156.96875 312.128906 156.148438 311.296875 L 154.492188 312.527344 C 153.195313 311.746094 154.296875 310.6875 154.214844 309.902344 C 154.117188 309.027344 152.683594 308.300781 153.042969 307.152344 C 154.128906 307.121094 155.214844 307.464844 155.964844 306.542969 C 156.546875 305.832031 156.066406 305.195313 157.582031 305.503906 "/>
<path style=" stroke:none;fill-rule:nonzero;fill:rgb(27.099609%,71.398926%,28.199768%);fill-opacity:1;" d="M 236.398438 0.00390625 L 236.398438 4.003906 L 236.398438 0.00390625 C 223.796875 0.00390625 209.863281 8.007813 209.050781 25.582031 C 208.871094 29.371094 211.792969 39.410156 212.6875 42.378906 C 212.628906 43.0625 212.597656 43.746094 212.566406 44.414063 C 212.5 45.917969 212.433594 47.339844 212.109375 48.621094 C 211.699219 50.25 209.523438 53.851563 207.863281 54.34375 C 205.597656 55.015625 204.257813 56.59375 203.394531 58.234375 C 187.101563 55.753906 159.445313 51.507813 136.765625 47.839844 C 133.914063 47.253906 131.394531 46.96875 129.066406 46.96875 C 123.628906 46.96875 119.125 48.558594 115.683594 51.699219 C 111.691406 55.363281 110.726563 59.519531 109.699219 64.71875 C 69.265625 78.683594 36.628906 106.871094 17.628906 144.3125 C -1.765625 182.527344 -5.289063 227.183594 7.707031 270.0625 C 19.289063 308.269531 39.773438 337.242188 68.585938 356.175781 C 90.246094 370.40625 116.792969 379.265625 149.75 383.265625 C 155.800781 384 162.007813 384.371094 168.191406 384.371094 C 190.25 384.371094 212.808594 379.628906 233.425781 370.652344 C 254.546875 361.460938 273.613281 347.800781 288.570313 331.15625 C 302.789063 315.328125 313.304688 297.027344 319.820313 276.769531 C 326.835938 254.941406 329.046875 231.238281 326.382813 206.308594 C 325.101563 185.089844 320.164063 166.453125 311.296875 149.339844 C 303.039063 133.402344 291.03125 118.238281 274.582031 102.976563 C 270.332031 99.03125 260.945313 93.078125 254.734375 89.140625 C 253.570313 88.402344 252.3125 87.605469 251.398438 87.011719 C 250.964844 80.949219 251.160156 79.785156 251.367188 78.558594 C 251.503906 77.746094 251.671875 76.738281 251.738281 74.949219 C 251.769531 74.125 251.75 72.1875 251.714844 69.09375 C 251.675781 65.894531 251.609375 60.539063 251.710938 59.566406 C 252.664063 52.382813 254.941406 49.75 257.144531 47.203125 C 258.15625 46.039063 259.199219 44.832031 260.0625 43.304688 C 261.078125 41.503906 263.488281 36.839844 263.921875 32.390625 L 263.929688 32.28125 L 263.933594 32.171875 C 264.109375 28.027344 264.167969 23.972656 263.003906 19.921875 C 260.140625 6.164063 247.601563 0.00390625 236.398438 0.00390625 M 236.398438 4.003906 C 246.65625 4.003906 256.886719 9.789063 259.117188 20.882813 C 260.179688 24.46875 260.09375 28.273438 259.9375 32.003906 C 259.652344 34.960938 258.140625 38.570313 256.578125 41.335938 C 254.1875 45.574219 249.285156 47.429688 247.742188 59.066406 C 247.519531 60.757813 247.816406 72.820313 247.742188 74.800781 C 247.5625 79.640625 246.597656 77.207031 247.554688 89.207031 C 248.59375 90.234375 266.03125 100.5 271.859375 105.90625 C 302.703125 134.527344 319.867188 164.433594 322.394531 206.644531 C 334.027344 315.085938 249.65625 380.371094 168.191406 380.371094 C 162.179688 380.371094 156.171875 380.015625 150.230469 379.292969 C 98.152344 372.976563 36.679688 351.84375 11.535156 268.902344 C -14.769531 182.113281 29.71875 95.324219 113.171875 67.765625 C 114.414063 61.585938 114.875 57.867188 118.378906 54.652344 C 121.425781 51.875 125.226563 50.96875 129.066406 50.96875 C 131.429688 50.96875 133.8125 51.3125 136.042969 51.773438 C 156.785156 55.128906 183.484375 59.253906 205.949219 62.667969 C 206.644531 60.464844 207.347656 58.671875 209.003906 58.179688 C 212.703125 57.078125 215.441406 51.773438 215.988281 49.59375 C 216.644531 46.992188 216.46875 44.308594 216.742188 41.972656 C 215.785156 39.027344 212.90625 28.71875 213.046875 25.765625 C 213.726563 11.046875 225.078125 4.003906 236.398438 4.003906 "/>
</g>
</svg>
